<svg width="193" height="50" viewBox="0 0 193 50" fill="none" xmlns="http://www.w3.org/2000/svg">
	<path d="M8.27222 17.5147L8.19738 17.1822L8.04599 16.5107L7.89359 15.8351L7.74187 15.1643L7.58912 14.4887L7.44148 13.8342C7.44182 13.8321 7.44318 13.8287 7.44692 13.8233L7.48434 13.7848L7.50782 13.758L8.03953 13.1552L8.5743 12.5463L9.1084 11.9367L9.64147 11.3288L10.1745 10.723L10.7063 10.1157C10.7086 10.114 10.708 10.1144 10.7117 10.11C10.725 10.0961 10.7603 10.0643 10.8076 10.0349C10.8702 9.99327 10.9335 9.97331 10.9611 9.97467C10.9614 9.97467 10.9617 9.97399 10.9621 9.97399C11.0655 9.97331 11.6578 9.96688 11.6584 9.96688L12.3905 9.9591L13.1192 9.95099L13.8509 9.94287L14.5796 9.93509L15.0375 9.93001C15.1028 10.1103 15.1719 10.3025 15.1732 10.3072L15.4093 10.9638L15.6471 11.6218L15.8822 12.2767L16.1169 12.934L16.3156 13.4847C16.305 13.5033 16.288 13.5307 16.2571 13.57L15.6798 14.2526L15.0994 14.9387L14.5204 15.624L13.9407 16.3097L13.3604 16.9944L12.78 17.6828C12.6991 17.7779 12.6467 17.8012 12.6212 17.8134C12.613 17.8161 12.6076 17.8181 12.6031 17.8198C12.4143 17.8053 11.8483 17.766 11.8384 17.7657L11.0706 17.7112L10.299 17.6581L9.53635 17.604L8.76447 17.5499L8.27222 17.5147ZM18.9976 12.6376L18.7653 11.9932L18.5309 11.338L18.2945 10.6807L18.0573 10.0213L17.8199 9.36305L17.5845 8.70745C17.3916 8.11579 16.9885 7.6838 16.5646 7.44598C16.1407 7.20411 15.7138 7.12833 15.3658 7.12664C15.3168 7.12664 15.2668 7.12766 15.2134 7.13239L14.5476 7.13984L13.82 7.14694L13.0876 7.15506L12.3596 7.16352L11.6278 7.17197L10.8998 7.1784C9.59997 7.23523 8.83965 7.99942 8.61615 8.24637C8.60186 8.25922 8.58893 8.27377 8.57566 8.28865C8.57532 8.28933 8.05586 8.88505 8.05586 8.88505L7.52483 9.48855L6.98937 10.0975L6.45562 10.7074L5.92357 11.3129L5.4024 11.9046C5.03874 12.2852 4.64106 12.9428 4.63086 13.845C4.63086 14.0195 4.64787 14.2056 4.68733 14.3988C4.69447 14.4295 4.84552 15.1007 4.84552 15.1014L4.99792 15.7756L5.1493 16.4484L5.30273 17.1223L5.45309 17.7934L5.59699 18.4304C5.65754 18.767 5.81539 19.151 6.13687 19.5133C6.48692 19.9111 7.06421 20.2386 7.798 20.2846L8.56614 20.339L9.33666 20.3932L10.1017 20.4483L10.8757 20.5011L11.6411 20.5545L12.3939 20.6076C12.4473 20.6137 12.5157 20.6185 12.6167 20.6191H12.644C13.1121 20.6191 14.1214 20.452 14.9368 19.4778L15.5131 18.7941L16.0924 18.1111L16.6718 17.424L17.2525 16.739L17.8321 16.0513L18.4118 15.3676C18.9793 14.6775 19.1449 13.9735 19.1415 13.4631C19.1398 13.0419 19.0449 12.7577 18.9976 12.6376Z" fill="#82DC2E" />
	<path d="M21.9539 1.66826C21.9396 1.7075 21.9294 1.74809 21.9222 1.7897C21.9311 1.72779 21.9433 1.6943 21.9539 1.66826ZM21.9644 1.63984C21.9678 1.63375 21.9702 1.628 21.9729 1.62225C21.9692 1.63037 21.9654 1.63882 21.962 1.64728C21.9634 1.64458 21.9641 1.64221 21.9644 1.63984ZM22.0365 1.50892C22.0644 1.47103 22.0603 1.47814 22.0651 1.47137H22.0654C22.0352 1.50892 22.0096 1.54918 21.9879 1.59113C22.0233 1.51907 22.0273 1.52787 22.0365 1.50892ZM24.4464 3.0285C24.475 3.03662 24.4981 3.04034 24.5175 3.04338C24.5311 3.04508 24.544 3.0471 24.558 3.04846C24.5604 3.04913 24.5627 3.04947 24.5644 3.04981C24.593 3.05252 24.6124 3.05387 24.6247 3.05387C24.5672 3.05793 24.5066 3.04744 24.4464 3.0285ZM24.0273 2.68176C24.0521 2.73115 24.0841 2.77749 24.1212 2.82011C24.077 2.77377 24.0423 2.72573 24.0273 2.68176ZM27.7472 11.2238C27.7411 11.2231 27.7326 11.2228 27.718 11.2231L26.8369 11.2001L25.9153 11.1781L24.9989 11.1538L24.0766 11.1314L23.1554 11.1084L22.2706 11.0858C22.1923 10.875 22.0876 10.5946 22.0852 10.5898L21.83 9.89941L21.5718 9.20626L21.316 8.51582L21.0585 7.82234L20.8292 7.20869C20.9088 7.11836 21.4116 6.53415 21.4177 6.5267L21.9807 5.87314L22.5424 5.21957L23.1037 4.56634L23.665 3.91548L24.2277 3.2609C24.2576 3.22809 24.4457 3.063 24.6842 3.05218C24.6903 3.05184 24.6964 3.05116 24.7022 3.05116C24.788 3.04711 24.921 3.04034 25.0962 3.03256C25.3081 3.02241 25.5194 3.01226 25.5194 3.01226L26.3851 2.9693L27.2482 2.92803L28.1153 2.8854L28.9787 2.84346L29.8176 2.80253L30.1166 3.36171L30.4752 4.03287L30.8351 4.70538L31.194 5.37518L31.5539 6.04702L31.8302 6.56459C31.8234 6.57339 31.8162 6.58387 31.8074 6.59436L31.2063 7.32472L30.5983 8.06117L29.9884 8.80235L29.3795 9.5415L28.7705 10.281L28.1623 11.0174C28.0014 11.2191 27.787 11.2214 27.7646 11.2241L27.7625 11.2238C27.7564 11.2241 27.7527 11.2238 27.7472 11.2238ZM34.3611 5.34643C34.2924 5.2145 34.0383 4.74022 34.0359 4.73379L33.676 4.06196L33.3175 3.39148L32.9575 2.71965L32.5993 2.04883L32.2397 1.37733C31.656 0.280272 30.5626 -0.00456408 29.8822 0.000847699C29.8081 0.000847699 24.5192 0.260651 24.5192 0.260651C23.1081 0.365182 22.3138 1.18789 22.1035 1.42943C22.0903 1.44262 22.078 1.45649 22.0665 1.4707L22.0658 1.47002C22.0008 1.54715 21.529 2.0972 21.529 2.09822L20.9683 2.7484L20.4053 3.40129L19.843 4.05587L19.282 4.70775L18.7285 5.35049C18.3941 5.71313 18.0135 6.34538 18.0029 7.20733C18.0029 7.48743 18.0492 7.78986 18.1611 8.09499L18.4207 8.79254L18.6785 9.48501L18.9347 10.1754L19.1926 10.8689L19.4491 11.5587L19.7008 12.2346C19.8093 12.5759 20.0376 12.9484 20.4366 13.2799C20.8445 13.6168 21.4443 13.8736 22.1845 13.8803V13.88H22.1933V13.8803H22.1985L23.084 13.9047L24.0069 13.9267L24.9267 13.9494L25.8442 13.9734L26.7661 13.996L27.6782 14.019C27.7261 14.0224 27.769 14.0234 27.8112 14.0234C28.4545 14.0204 29.5172 13.769 30.3364 12.7924L30.9457 12.0533L31.5546 11.3121L32.1629 10.5753L32.7732 9.83513L33.3821 9.09632L33.9907 8.35615C34.4877 7.7496 34.6802 7.09536 34.6772 6.54328C34.6751 6.04938 34.5408 5.64513 34.3611 5.34643Z" fill="#E9CB00" />
	<path d="M13.1663 29.7038V29.7031V29.7038ZM11.4116 23.9999C11.4126 24.002 11.4136 24.0043 11.4146 24.005L11.4136 24.0043C11.4129 24.003 11.4123 24.0016 11.4116 23.9999ZM2.93005 27.9792C3.05184 27.8405 3.55634 27.2559 3.5611 27.2505L4.16357 26.5482L4.764 25.8504L5.36477 25.1542L5.96622 24.4532L6.56801 23.7567L6.58706 23.733C6.71089 23.5822 6.77893 23.6075 6.78131 23.6014C6.91874 23.6129 7.58143 23.663 7.58483 23.663L8.3795 23.7252L9.17724 23.7855L9.97294 23.8464L10.7703 23.9062L11.381 23.9526C11.4422 24.1674 11.5926 24.6954 11.5926 24.6954L11.8317 25.5361L12.0719 26.3791L12.3124 27.2194L12.5526 28.0607L12.7921 28.9017C12.7931 28.9051 12.7944 28.9142 12.7944 28.9287C12.79 28.9781 12.7927 29.0786 12.6393 29.2731H12.6386L11.9807 30.0725L11.3228 30.8685L10.6628 31.6682L10.0032 32.4682L9.34461 33.2642L8.68533 34.0646C8.61661 34.1478 8.56286 34.1952 8.52783 34.2212C8.50367 34.2178 8.4802 34.2151 8.45571 34.2138L7.68212 34.0771L6.84526 33.9276L6.005 33.7791L5.1661 33.6292L4.32754 33.4804L3.63016 33.3569L3.51143 32.6286L3.37366 31.7785L3.23486 30.9246L3.0947 30.0691L2.95523 29.218L2.81745 28.3658C2.81337 28.3452 2.81201 28.3229 2.81201 28.3029C2.81201 28.2183 2.83991 28.1321 2.87562 28.0658C2.89297 28.033 2.91032 28.0062 2.92087 27.9917C2.92631 27.9846 2.93005 27.9805 2.93005 27.9792ZM15.4942 28.126L15.2574 27.2975L15.0172 26.4555L14.7774 25.6139L14.5372 24.7733L14.2981 23.935L14.0589 23.0933C13.8609 22.413 13.4486 21.9273 13.0179 21.6333C12.5828 21.3363 12.1461 21.2111 11.7848 21.1793L10.9847 21.1174L10.1866 21.0575L9.39088 20.9973L8.59484 20.9364L7.80187 20.8759L7.03202 20.8167C6.94868 20.8062 6.86159 20.8011 6.76804 20.8011C6.14278 20.8011 5.161 21.0416 4.42381 21.9472C4.41973 21.9513 4.42075 21.9503 4.42075 21.9509C4.42075 21.9509 4.42041 21.9513 4.42007 21.9513C4.41973 21.9516 4.41871 21.9526 4.41735 21.954C4.38265 21.9932 3.83359 22.6316 3.83087 22.6353L3.2284 23.3355L2.62797 24.0321L2.02652 24.7313L1.42541 25.4316L0.8243 26.1281H0.82464C0.638558 26.3327 0.0132948 27.0841 2.74836e-05 28.2978C-0.00065289 28.4582 0.0112533 28.63 0.0408495 28.809L0.179306 29.6649L0.319462 30.5197L0.459279 31.3735L0.598075 32.2236L0.735171 33.0754L0.876008 33.9316C0.938262 34.2879 1.09611 34.71 1.41724 35.1217C1.73532 35.528 2.23914 35.9099 2.91441 36.0679C3.01578 36.0889 3.82338 36.2323 3.83359 36.2337L4.67181 36.3829L5.51173 36.5317L6.35063 36.6802L7.18749 36.8294L7.95495 36.9657C8.12981 37.0121 8.32201 37.0371 8.53361 37.0385H8.55402C9.24358 37.0385 10.1328 36.7184 10.8561 35.8436L11.5191 35.0385L12.177 34.2408L12.837 33.4421L13.4956 32.6431L14.1535 31.8465L14.8138 31.0471C15.4217 30.3069 15.6115 29.5103 15.6095 28.9051C15.6088 28.5989 15.5656 28.3428 15.4942 28.126Z" fill="#1399F2" />
	<path d="M42.3974 10.3929L41.5143 10.4034L40.6329 10.4135L39.7532 10.423L38.8728 10.4335L37.9924 10.4423C37.7427 10.446 37.5984 10.562 37.5372 10.6175C37.5192 10.6337 37.5195 10.6347 37.5161 10.6391L37.0028 11.2636L36.4891 11.8901L35.9761 12.5153L35.4631 13.1408L34.9494 13.7669C34.9443 13.773 34.4864 14.3298 34.4088 14.4235C34.4082 14.4239 34.4078 14.4242 34.4078 14.4252C34.4017 14.4367 34.3996 14.4496 34.3996 14.4523C34.4003 14.4523 34.3983 14.4523 34.4061 14.4723L34.7296 15.1776L35.0521 15.8829L35.3739 16.5869L35.6992 17.2936L36.02 17.9985C36.0223 18.004 36.2526 18.507 36.3312 18.6805C36.3353 18.6846 36.3408 18.6893 36.3476 18.6951C36.3806 18.7194 36.4377 18.7634 36.6068 18.7779L37.56 18.8442L38.5105 18.9122L39.4609 18.9785L40.4135 19.0449L41.3656 19.1122L42.3165 19.1788V19.1792C42.3505 19.1808 42.3393 19.1808 42.3655 19.1819C42.4692 19.1795 42.6665 19.1555 42.7886 18.9873L43.3493 18.2648L43.9085 17.5439L44.4675 16.8227L45.0264 16.1018L45.586 15.3802L46.1504 14.6532C46.1708 14.6265 46.1807 14.6079 46.1861 14.5967L45.7646 13.9367L45.3258 13.2507L44.8849 12.5643L44.4477 11.8803L44.0062 11.1926C44.0041 11.1895 43.5721 10.5133 43.5599 10.4947C43.5483 10.4335 43.3792 10.3888 43.3085 10.3837H43.3044L42.3974 10.3929ZM49.9999 14.568C50.0026 15.1204 49.8254 15.7645 49.3662 16.3433L48.7106 17.1894L48.0564 18.0327L47.4029 18.8767L46.7491 19.7207L46.0949 20.5627L45.4418 21.4057H45.4421C44.6226 22.4612 43.4741 22.7305 42.7475 22.7305C42.639 22.7305 42.5366 22.7244 42.4379 22.7129L41.348 22.6354L40.2366 22.5569L39.1228 22.4791L38.008 22.4017L36.8973 22.3215L35.7859 22.2437C34.2364 22.1266 33.3825 21.1645 33.112 20.5249L32.7355 19.6998L32.3595 18.8781L31.9809 18.052L31.604 17.2272L31.2267 16.4028L30.8481 15.5778C30.6624 15.1725 30.5858 14.7666 30.5858 14.3961C30.5947 13.5508 30.941 12.9205 31.2733 12.5461L31.8642 11.8272L32.464 11.0955L33.0648 10.3631L33.6662 9.6314L34.2663 8.9007C34.2663 8.9007 34.4116 8.72242 34.5561 8.5455C34.7014 8.36756 34.8467 8.19098 34.8467 8.1903C34.8558 8.17981 34.8647 8.16967 34.8735 8.15918C35.2994 7.63653 36.2111 6.93932 37.5709 6.91125L38.5999 6.90008L39.631 6.8879L40.6601 6.87708L41.6881 6.86625L42.721 6.85374C42.725 6.85374 43.6231 6.84257 43.7197 6.84257C43.7578 6.84054 43.7915 6.83987 43.8225 6.83987C44.5433 6.84291 45.7568 7.122 46.4953 8.28062L47.0066 9.08134L47.5234 9.88545L48.0357 10.6865L48.5497 11.4893L49.0658 12.2934C49.0658 12.2934 49.1872 12.4831 49.309 12.6753C49.424 12.8546 49.5182 13.0024 49.5604 13.0687C49.7941 13.4171 49.9955 13.9259 49.9999 14.568Z" fill="#F28F33" />
	<path d="M23.2604 34.7362L23.2607 34.7356L22.4184 34.6287L21.5778 34.5208L20.7352 34.4152L19.8939 34.3066L19.0533 34.2011C19.0509 34.1997 18.4011 34.1179 18.2498 34.0979C18.2443 34.0979 18.2389 34.0965 18.2334 34.0965C18.2314 34.0965 18.227 34.0965 18.2171 34.0949C18.2154 34.0942 18.214 34.0942 18.212 34.0942C18.1382 34.1047 17.9262 34.2268 17.8385 34.3002L17.2952 34.9622L16.7199 35.6618L16.1447 36.3631L15.5705 37.0626L14.9935 37.7656L14.4189 38.4628C14.4121 38.4706 14.4002 38.4885 14.3601 38.5294L14.3543 38.5352L14.3536 38.5359C14.3482 38.5433 14.3363 38.5606 14.3233 38.5869C14.2971 38.6411 14.2669 38.7263 14.2658 38.8579C14.2658 38.9154 14.273 38.9854 14.2917 39.068L14.5012 39.9858L14.7088 40.9032L14.917 41.8179L15.1265 42.736L15.3354 43.6538L15.5252 44.4897C15.5272 44.4958 15.5306 44.5015 15.5334 44.5083C15.5514 44.5465 15.58 44.6033 15.614 44.6548C15.6837 44.765 15.7654 44.8154 15.7691 44.8127L16.672 45.0303L17.5741 45.2474L18.4756 45.4643L19.3788 45.6804L20.2817 45.8976L21.1856 46.1165C21.1941 46.1189 21.2196 46.1243 21.2601 46.1375C21.2784 46.1375 21.3373 46.1277 21.4931 45.9433L22.1286 45.126L22.7644 44.306L23.3995 43.4873L24.0346 42.6694L24.6694 41.8507L25.3011 41.0348C25.4352 40.8578 25.4559 40.7178 25.4583 40.6041C25.4573 40.4918 25.4345 40.4336 25.4338 40.4323L25.1042 39.5223L24.7752 38.614L24.4456 37.7047L24.117 36.7937L23.7863 35.884L23.4587 34.9754C23.3692 34.7548 23.293 34.7569 23.2604 34.7362ZM29.2599 40.6779C29.2623 41.3396 29.0708 42.1508 28.4918 42.9014L27.7447 43.8652L26.9966 44.8286L26.2496 45.7914L25.5019 46.7538L24.7538 47.7179L24.0006 48.6885C23.2525 49.6492 22.2844 50 21.5234 50H21.4951C21.1866 50 20.9131 49.9513 20.677 49.8731L19.6922 49.6353L18.6335 49.3809L17.5707 49.1252L16.5094 48.8701L15.4476 48.6144L14.3822 48.3583C12.9524 47.9815 12.2992 46.7822 12.0686 46.0833L12.0597 46.0549L12.0431 45.9927L12.04 45.9737L11.794 44.8953L11.5481 43.8165L11.3018 42.7367L11.0562 41.6579L10.8126 40.5801L10.5653 39.4993C10.4972 39.1986 10.4677 38.9107 10.4677 38.6397C10.4755 37.5853 10.8956 36.8143 11.3049 36.3722L11.9563 35.5813L12.6336 34.7562L13.3109 33.9315L13.9886 33.1077L14.6639 32.2823C14.672 32.2739 15.3252 31.4775 15.4116 31.3791C15.5708 31.2299 16.4804 30.2638 17.9541 30.2394C18.0555 30.2394 18.1586 30.2455 18.2743 30.258L19.2673 30.3822L20.2569 30.509L21.2458 30.6345L22.2374 30.76L23.227 30.8855L24.1932 31.009C24.9324 31.0719 26.1758 31.6098 26.7398 33.1216L27.1256 34.1919L27.5127 35.2616L27.8998 36.3319L28.287 37.4002L28.6748 38.4706C28.6765 38.4767 28.9786 39.3109 29.0425 39.4888C29.1684 39.7973 29.2582 40.1989 29.2599 40.6779Z" fill="#775EC2" />
	<path d="M34.3257 28.8898L33.7848 29.569L33.2443 30.2456L32.704 30.9228L32.1628 31.6021L32.1322 31.6403C32.1274 31.6475 32.1199 31.6606 32.1125 31.6772C32.0941 31.7168 32.0764 31.7736 32.0764 31.8511C32.0764 31.9039 32.0852 31.9695 32.1142 32.05L32.4377 32.9096L32.7564 33.7665L33.0776 34.6227L33.3987 35.4809L33.7181 36.3374C33.7192 36.3412 33.9631 36.9934 34.0182 37.1432C34.0216 37.152 34.027 37.1652 34.0352 37.1855L34.0437 37.2068C34.0444 37.2068 34.0444 37.2122 34.0587 37.2373C34.0726 37.2616 34.0971 37.2975 34.1301 37.333C34.2002 37.4051 34.2941 37.4805 34.4958 37.5174L35.4895 37.6929L36.4845 37.8695L37.4772 38.0471L38.4716 38.2224L39.4656 38.3979L40.4603 38.5759L40.3644 39.1097L40.4634 38.5759C40.4712 38.5786 40.4858 38.5799 40.543 38.5945L40.5498 38.5955C40.5627 38.5989 40.5685 38.5989 40.5967 38.5995C40.6739 38.5897 40.775 38.6029 40.9471 38.3888L41.5421 37.5928L42.1367 36.7965L42.731 35.9985L43.325 35.2035L43.9197 34.4055L44.5099 33.6166C44.599 33.4904 44.6092 33.4136 44.6113 33.3436C44.613 33.2499 44.5704 33.1684 44.5663 33.1613L44.1112 32.3169L43.6563 31.4705L43.2019 30.6275L42.7467 29.7825L42.2908 28.9354L41.8398 28.0975C41.6979 27.8404 41.5162 27.7937 41.4213 27.769C41.3921 27.7626 41.3873 27.7633 41.3744 27.7626L40.462 27.6932L39.5479 27.6252L38.6338 27.5545L37.7211 27.4852L36.807 27.4152L35.8787 27.3438C35.8668 27.3431 35.8532 27.3418 35.8331 27.3418C35.6283 27.3404 35.4932 27.448 35.4317 27.5075C35.4129 27.5268 35.4123 27.5275 35.4075 27.5339L34.8669 28.2118L34.3257 28.8898ZM48.9925 33.3714C48.9949 33.987 48.8112 34.7015 48.3155 35.372L47.5712 36.3682L46.8282 37.3635L46.0856 38.359L45.3427 39.3556L44.5983 40.3512L43.856 41.3468L43.3094 40.9425L43.853 41.3501C43.0682 42.3968 41.9939 42.7422 41.1849 42.7422H41.1573C40.8883 42.7408 40.6457 42.7094 40.4307 42.6542L39.2516 42.4442L38.0106 42.2243L36.7659 42.0044L35.5252 41.7835L34.2839 41.5622L33.0446 41.3447C31.3923 41.0416 30.569 39.8756 30.321 39.1452L29.9254 38.0894L29.5267 37.0191L29.1253 35.9487L28.7232 34.875L28.3255 33.806C28.3241 33.802 27.9254 32.7425 27.918 32.7225C27.7625 32.297 27.6992 31.8849 27.6992 31.5067C27.7067 30.5653 28.0625 29.8657 28.4146 29.4574L29.0909 28.6103L29.7672 27.7612L30.4421 26.9176L31.1181 26.0685L31.7937 25.2214C31.7995 25.2143 32.4329 24.4186 32.4615 24.3848C32.4656 24.3787 32.4632 24.3811 32.4744 24.3689C32.9105 23.8111 33.8355 23.0872 35.2007 23.075C35.3017 23.075 35.4021 23.0804 35.4973 23.0878L36.6383 23.1754L37.7817 23.2627L38.921 23.3497L40.0616 23.4359L41.2043 23.5218C41.207 23.5232 42.2395 23.6003 42.3079 23.6064H42.3119H42.313H42.314C43.095 23.6402 44.4041 24.0736 45.1906 25.4897L45.757 26.5427L46.3265 27.6005L46.8946 28.657L47.4634 29.7145L48.0315 30.7703C48.0356 30.7767 48.4826 31.6079 48.5731 31.777C48.7983 32.1583 48.9891 32.7039 48.9925 33.3714Z" fill="#E51433" />
	<path d="M76.3994 15.3393H72.7003V22.4926H64.6991V15.3393H61V34H64.6991V25.942H72.7003V34H76.3994V15.3393Z" fill="#333333" />
	<path d="M92.7001 15.3393H80.534V34H93.0289V30.5506H84.2331V25.8289H90.4532V22.5774H84.2331V18.7887H92.7001V15.3393Z" fill="#333333" />
	<path d="M110.6 34L104.681 24.5L110.216 15.3393H106.024L102.571 21.2485L99.0911 15.3393H94.8714L100.516 24.5L94.5152 34H98.7349L102.571 27.808L106.407 34H110.6Z" fill="#333333" />
	<path d="M124.746 34H128.719L120.663 15H119.43L111.346 34H115.32L116.333 31.5685H123.732L124.746 34ZM122.417 28.4301H117.649L120.033 22.1533L122.417 28.4301Z" fill="#333333" />
	<path d="M150.477 15.3606L146.449 26.1504L141.708 15.0277H140.475L135.735 26.1504L131.707 15.3606H127.597L134.831 34H136.036L141.106 22.5445L146.147 34H147.353L154.587 15.3606H150.477Z" fill="#785CC3" />
	<path d="M161.058 15.3606H157.359V33.6672H161.058V15.3606Z" fill="#785CC3" />
	<path d="M170.871 15.0277C169.145 15.0277 167.72 15.4993 166.596 16.4423C165.473 17.3854 164.898 18.6336 164.898 20.1869C164.898 21.3796 165.281 22.4058 166.048 23.238C166.816 24.0701 167.884 24.819 169.282 25.4569L171.227 26.3445C171.803 26.6219 172.214 26.8438 172.488 26.9825C172.762 27.1212 173.008 27.3431 173.228 27.6204C173.447 27.8978 173.556 28.2307 173.556 28.5912C173.556 29.2292 173.337 29.7285 172.871 30.0891C172.406 30.4496 171.775 30.6438 170.981 30.6438C169.282 30.6438 167.802 29.7562 166.542 27.981L163.993 29.9226C164.678 31.1708 165.637 32.1693 166.843 32.8905C168.049 33.6117 169.419 33.9723 170.953 33.9723C172.789 33.9723 174.296 33.473 175.474 32.4745C176.653 31.4759 177.256 30.1445 177.256 28.4803C177.256 27.2321 176.899 26.2058 176.159 25.3737C175.42 24.5416 174.296 23.765 172.789 23.0993L170.734 22.1839C169.967 21.8511 169.419 21.5182 169.09 21.2409C168.761 20.9635 168.597 20.5752 168.597 20.1036C168.597 19.5212 168.816 19.0774 169.254 18.7723C169.693 18.4672 170.213 18.3285 170.844 18.3285C172.214 18.3285 173.365 19.0219 174.296 20.4365L176.817 18.4672C176.242 17.4131 175.447 16.581 174.433 15.9431C173.419 15.3051 172.214 15 170.816 15L170.871 15.0277Z" fill="#785CC3" />
	<path d="M192.671 15.3606H180.505V24.5139V33.6672H193V30.2832H184.204V25.6511H190.424V22.4613H184.204V18.7445H192.671V15.3606Z" fill="#785CC3" />
</svg>
