<svg width="238" height="205" viewBox="0 0 238 205" fill="none" xmlns="http://www.w3.org/2000/svg">
	<g clip-path="url(#clip0)">
		<path d="M238 88.6144C238 104.783 228.591 118.756 214.944 125.371C214.487 125.592 214.025 125.805 213.559 126.01C210.032 127.56 206.302 128.6 202.481 129.099C204.575 135.037 205.846 141.154 204.733 147.834C204.461 149.453 204.057 151.047 203.525 152.601C202.892 154.446 202.1 156.234 201.159 157.943C200.313 159.486 199.363 160.97 198.318 162.386C196.104 165.395 193.477 168.134 190.627 170.539C179.304 179.114 166.579 185.552 153.522 191.247C149.491 193.005 145.429 194.692 141.367 196.349C133.118 199.641 124.529 202.01 115.757 203.412C114.614 203.597 113.468 203.765 112.321 203.917C99.9558 205.547 87.4171 205.336 75.1141 203.291C72.539 202.675 70.0197 201.847 67.582 200.814C67.4269 200.748 67.2725 200.682 67.1186 200.616C67.0275 200.576 66.9373 200.536 66.8472 200.496C62.2297 198.454 57.9575 195.709 54.1832 192.358C51.9899 190.398 50.0156 188.206 48.2948 185.822C46.5509 183.403 45.0978 180.787 43.9652 178.029C42.2441 174.155 40.9944 170.078 39.944 165.938C39.0388 162.369 38.2815 158.752 37.4989 155.182C37.3745 154.611 37.2489 154.043 37.1221 153.476C34.6246 142.311 30.4006 132.105 26.0484 121.555C25.8421 121.055 25.6519 120.555 25.4778 120.055C25.4019 119.84 25.3289 119.625 25.2587 119.411C25.1387 119.048 25.026 118.686 24.9179 118.324C24.8755 118.184 24.834 118.044 24.7934 117.905C24.2263 115.955 23.7791 114.025 23.2094 112.14C23.001 111.448 22.7756 110.762 22.5214 110.083C21.8831 108.374 21.0625 106.709 19.8716 105.11C15.6979 99.5053 9.10177 96.0653 4.9788 90.4236C-1.42904 81.6553 -0.204561 67.763 8.37687 60.8299C16.486 54.2778 28.6929 54.04 38.5988 54.4462C54.8675 55.1134 70.5998 61.9493 86.8648 61.1793C89.5181 61.0543 92.1543 60.6868 94.7404 60.0816C94.7846 60.0708 94.8297 60.0609 94.8738 60.0501C95.0037 60.0195 95.1326 59.9888 95.2615 59.9564C96.3299 59.6944 97.3797 59.3972 98.4108 59.0649C100.254 58.4769 102.049 57.7871 103.823 57.0216C103.974 56.9568 104.123 56.892 104.273 56.8253C104.692 56.6416 105.11 56.4537 105.527 56.2616H105.528C105.988 56.05 106.447 55.8336 106.904 55.6123C107.257 55.4442 107.609 55.2725 107.962 55.0972C108.342 54.909 108.723 54.7184 109.104 54.5254C109.479 54.3345 109.855 54.1418 110.231 53.9473C111.763 53.1539 113.301 52.3263 114.867 51.4808C115.234 51.2826 115.602 51.0836 115.97 50.8837C115.97 50.8837 115.971 50.8833 115.972 50.8828C115.983 50.8765 115.996 50.8702 116.008 50.8639C116.108 50.8099 116.207 50.7567 116.306 50.7027C116.307 50.7036 116.307 50.7018 116.307 50.7018C116.359 50.6748 116.411 50.646 116.464 50.6181C119.797 48.8314 123.169 47.1763 126.498 45.4733C126.554 45.4446 126.61 45.4158 126.666 45.3879C126.689 45.3753 126.713 45.3627 126.737 45.3509C126.803 45.3166 126.871 45.2816 126.938 45.2473C127.374 45.0222 127.81 44.7965 128.246 44.5702C128.298 44.5423 128.352 44.5153 128.404 44.4874C128.969 44.192 129.533 43.8939 130.094 43.5931C130.402 43.4283 130.709 43.2624 131.016 43.0952C136.006 40.3702 140.806 37.3391 145.118 33.3588C149.55 29.2677 155.479 23.4477 162.205 17.8114C178.178 4.42879 198.645 -7.91729 214.226 6.38111C220.575 12.2065 221.824 20.6255 220.465 29.5451C219.552 35.5103 219.868 41.5991 221.396 47.4375C222.924 53.2759 225.631 58.7408 229.351 63.4964C234.968 70.6656 238.014 79.5106 238 88.6144Z" fill="#FFEA70" />
		<path d="M73.2614 57.1747C80.7253 57.1747 86.7759 51.1314 86.7759 43.6766C86.7759 36.2218 80.7253 30.1785 73.2614 30.1785C65.7976 30.1785 59.7469 36.2218 59.7469 43.6766C59.7469 51.1314 65.7976 57.1747 73.2614 57.1747Z" fill="#FFEA70" />
		<path d="M221.367 141.503V141.505C221.333 141.848 221.282 142.188 221.215 142.527C220.385 146.687 217.148 149.908 213.877 152.612C211.237 154.796 207.086 156.931 203.525 157.656C203.199 157.723 202.877 157.778 202.562 157.819C202.095 157.881 201.627 157.922 201.159 157.943C194.973 158.229 188.738 155.231 182.527 155.107C181.842 155.093 181.387 155.092 181.058 155.014C181.02 155.005 180.983 154.995 180.949 154.983C180.467 154.829 180.278 154.449 179.96 153.478C179.811 153.021 179.67 152.565 179.532 152.109C179.315 151.393 179.101 150.681 178.857 149.972V149.971C178.689 149.48 178.506 148.992 178.3 148.507C177.934 147.648 173.139 137.616 173.18 137.573C173.871 136.844 174.453 136.235 174.935 135.73C176.392 134.209 176.952 133.645 176.952 133.645C173.18 134.33 167.657 130.506 167.657 130.506C167.657 130.506 166.932 134.136 165.648 139.382C164.207 145.262 162.063 153.174 159.445 160.287C157.272 166.197 154.771 171.555 152.077 174.734C152.449 180.346 152.967 186.005 153.522 191.247C149.492 193.005 145.429 194.692 141.367 196.349C133.118 199.641 124.529 202.01 115.757 203.412C114.614 203.597 113.468 203.765 112.321 203.917C99.9559 205.547 87.4172 205.336 75.1142 203.291C72.5392 202.675 70.0198 201.847 67.5821 200.814C67.427 200.748 67.2726 200.682 67.1187 200.616C67.0276 200.576 66.9375 200.536 66.8473 200.496C66.8491 200.479 66.8518 200.462 66.8535 200.445C66.9221 199.885 66.9912 199.314 67.0609 198.731C67.1006 198.393 67.1408 198.051 67.1817 197.706C67.1988 197.561 67.2159 197.415 67.233 197.27C67.2638 197.009 67.2944 196.747 67.3242 196.482C67.3855 195.952 67.4464 195.417 67.5071 194.876C67.5531 194.47 67.5988 194.06 67.6441 193.647C67.7046 193.097 67.7647 192.541 67.8245 191.98C67.8705 191.56 67.9156 191.136 67.9597 190.71C67.9742 190.567 67.9896 190.424 68.004 190.282C68.0491 189.854 68.0932 189.424 68.1365 188.991C68.1726 188.629 68.2089 188.267 68.2456 187.904C68.2907 187.449 68.3351 186.992 68.379 186.533C68.4228 186.074 68.4664 185.613 68.5098 185.151C68.5268 184.965 68.5439 184.78 68.5612 184.594C68.5891 184.297 68.6161 184 68.6423 183.702C68.6694 183.404 68.6964 183.106 68.7217 182.806C68.7486 182.507 68.7747 182.207 68.8001 181.906C68.8523 181.306 68.9025 180.704 68.9507 180.1C69.0372 179.044 69.1187 177.986 69.195 176.925C69.2491 176.194 69.3002 175.464 69.3483 174.734C66.6039 171.495 64.0803 165.995 61.9056 159.953C59.391 152.968 57.3425 145.258 55.9585 139.48C54.689 134.181 53.9777 130.506 53.9777 130.506C53.9777 130.506 48.2453 134.33 44.4728 133.645C44.4728 133.645 45.0328 134.209 46.4898 135.73C46.9722 136.235 47.5537 136.844 48.2453 137.573C48.2857 137.616 43.4911 147.648 43.125 148.507C42.9186 148.992 42.7364 149.48 42.5678 149.971V149.972C42.3244 150.681 42.1097 151.393 41.8925 152.109C41.7546 152.565 41.6138 153.021 41.4652 153.478C41.1469 154.449 40.9576 154.829 40.4761 154.983C40.4417 154.995 40.4049 155.005 40.367 155.014C40.0378 155.092 39.5826 155.093 38.8983 155.107C38.432 155.116 37.9656 155.141 37.4989 155.182C37.3655 155.192 37.2312 155.205 37.0978 155.218C31.0128 155.826 24.9115 158.62 18.8627 157.819C15.1137 157.323 10.4308 154.996 7.54746 152.612C4.27732 149.908 1.03954 146.687 0.210153 142.527C0.142532 142.188 0.091741 141.847 0.0577804 141.505V141.503C-0.215498 138.785 0.518504 136.01 1.58592 133.473C4.3206 126.975 9.78436 121.324 14.5376 116.222C14.6531 116.098 14.7676 115.976 14.8829 115.855C14.9443 115.79 15.0056 115.725 15.0678 115.661C15.3329 115.385 15.5979 115.117 15.863 114.856C15.9496 114.771 16.036 114.687 16.1226 114.604C16.66 114.087 17.2001 113.601 17.7528 113.144C17.7997 113.104 17.8466 113.065 17.8943 113.027C17.9439 112.986 17.9935 112.946 18.0439 112.906C18.3712 112.642 18.7039 112.388 19.042 112.145C19.1096 112.095 19.1782 112.047 19.2468 111.999C19.2603 111.989 19.2738 111.979 19.2873 111.971C19.3658 111.915 19.4441 111.861 19.5236 111.807C19.6083 111.749 19.6931 111.692 19.7787 111.635C19.8644 111.579 19.95 111.523 20.0366 111.467C20.1231 111.411 20.2105 111.355 20.298 111.301C20.4739 111.192 20.6515 111.084 20.831 110.98C20.9211 110.927 21.0113 110.874 21.1023 110.823C21.1933 110.772 21.2854 110.72 21.3782 110.669C21.4709 110.618 21.564 110.568 21.6577 110.519C21.7279 110.48 21.7991 110.443 21.8704 110.407C21.9362 110.372 22.002 110.339 22.0678 110.306C22.1165 110.282 22.1652 110.257 22.2149 110.232C22.232 110.223 22.2499 110.214 22.2672 110.206C22.351 110.165 22.4357 110.123 22.5214 110.083C22.6305 110.03 22.7396 109.978 22.8505 109.927C23.0696 109.826 23.2914 109.727 23.5186 109.631C23.6366 109.58 23.7557 109.531 23.8756 109.481C23.9558 109.448 24.037 109.415 24.1172 109.383C24.1973 109.351 24.2778 109.318 24.3571 109.286C24.6213 109.18 24.8827 109.076 25.1423 108.972C25.247 108.93 25.3507 108.889 25.4543 108.846C25.5319 108.816 25.6094 108.784 25.6861 108.753C25.8159 108.7 25.9448 108.648 26.0729 108.594C26.1747 108.552 26.2766 108.509 26.3784 108.465C26.6409 108.355 26.9004 108.241 27.1575 108.122C27.2323 108.088 27.3071 108.053 27.3819 108.017C27.5308 107.947 27.6794 107.875 27.8256 107.799C27.895 107.765 27.9643 107.729 28.0339 107.693C28.1311 107.641 28.2276 107.589 28.3233 107.536C28.3756 107.508 28.4278 107.478 28.4793 107.449C28.5965 107.383 28.7118 107.315 28.8264 107.244L28.9156 107.19C28.9462 107.171 28.9778 107.152 29.0084 107.132C29.0589 107.1 29.1086 107.069 29.1582 107.035C29.2835 106.955 29.4079 106.871 29.5314 106.783C29.5999 106.736 29.6675 106.686 29.7351 106.636C29.7794 106.603 29.8235 106.571 29.8667 106.536C29.883 106.525 29.8987 106.512 29.9136 106.5C29.9479 106.474 29.9822 106.447 30.0155 106.42C30.0327 106.408 30.0499 106.394 30.0661 106.38C30.0976 106.356 30.1292 106.331 30.1598 106.305C30.2942 106.195 30.4276 106.08 30.5584 105.961C30.6035 105.921 30.6476 105.879 30.6917 105.838C30.7089 105.822 30.7251 105.806 30.7423 105.79C30.7999 105.736 30.8559 105.68 30.9126 105.624C31.0272 105.51 31.1405 105.395 31.2526 105.279C31.3373 105.191 31.4212 105.104 31.5042 105.016C31.6267 104.885 31.7481 104.754 31.8684 104.621C31.9045 104.582 31.9396 104.543 31.9748 104.503C32.0433 104.428 32.1118 104.351 32.1786 104.274C32.2454 104.198 32.312 104.122 32.3777 104.046C32.5122 103.891 32.6448 103.735 32.7754 103.577C32.834 103.507 32.8926 103.436 32.9512 103.365C33.0098 103.294 33.0685 103.223 33.1261 103.151C33.1837 103.079 33.2416 103.007 33.2993 102.935C33.4138 102.791 33.5283 102.646 33.641 102.501C33.6581 102.48 33.6752 102.458 33.6915 102.436C33.7876 102.312 33.8832 102.188 33.9781 102.064C34.0341 101.99 34.09 101.916 34.145 101.843C34.2 101.77 34.2559 101.695 34.3108 101.622C34.3657 101.548 34.4209 101.473 34.4759 101.399C34.5309 101.325 34.5849 101.251 34.6391 101.177C34.8023 100.953 34.9645 100.729 35.1259 100.504C35.18 100.429 35.2341 100.354 35.2874 100.279C35.3938 100.128 35.5011 99.9772 35.6075 99.8268C35.9888 99.2865 36.3656 98.7444 36.7444 98.2023C36.8256 98.0861 36.9058 97.9708 36.9869 97.8547C37.0951 97.7007 37.2024 97.5467 37.3105 97.3927C37.4738 97.1613 37.6361 96.9307 37.8002 96.7011C37.9093 96.548 38.019 96.3952 38.1293 96.2427C38.1924 96.1554 38.2555 96.0689 38.3176 95.9825C38.3655 95.9167 38.4132 95.851 38.4619 95.7862C38.644 95.5367 38.8286 95.2891 39.0156 95.0432C39.1129 94.9145 39.2109 94.7866 39.3094 94.6596C39.5782 94.3111 39.8523 93.9671 40.1317 93.6276C40.2057 93.5376 40.2804 93.4484 40.3553 93.3593C40.4139 93.289 40.4734 93.2188 40.5338 93.1486C40.8926 92.728 41.2615 92.3156 41.6447 91.9139C41.7077 91.8473 41.7717 91.7807 41.8367 91.714C41.8372 91.7135 41.8375 91.7129 41.8375 91.7122L41.8574 91.6924C41.8583 91.6915 41.8583 91.6915 41.8583 91.6924V91.6915C41.9331 91.615 42.007 91.5402 42.0819 91.4646C42.2036 91.343 42.3253 91.2215 42.4479 91.1026C42.5191 91.0323 42.5904 90.963 42.6617 90.8946C42.8275 90.7343 42.994 90.5758 43.1612 90.4191C43.2612 90.3254 43.3604 90.2327 43.4614 90.1399C43.4983 90.1057 43.5353 90.0715 43.5723 90.0382C43.6724 89.9463 43.7731 89.8551 43.8744 89.7644C43.896 89.7446 43.9185 89.7248 43.9411 89.7059C44.0682 89.5906 44.1962 89.478 44.3252 89.3655C44.3765 89.3205 44.4278 89.2754 44.4801 89.2304C44.5685 89.1539 44.6569 89.0773 44.7462 89.0017C44.84 88.9215 44.9346 88.8414 45.0293 88.7621C45.1375 88.6712 45.246 88.5811 45.3548 88.492C45.3665 88.4821 45.3791 88.4722 45.3917 88.4614C45.4854 88.3848 45.5792 88.3083 45.674 88.2326C45.9931 87.9745 46.3153 87.7214 46.6404 87.4735C46.7234 87.4096 46.8073 87.3465 46.8911 87.2844C46.9876 87.2114 47.085 87.1385 47.1824 87.0665C47.3221 86.9629 47.4628 86.8602 47.6025 86.7594C47.7423 86.6585 47.8847 86.5577 48.0253 86.4577C48.1236 86.3884 48.2218 86.319 48.3211 86.2506C48.4149 86.1846 48.5092 86.1197 48.6042 86.0561C48.7899 85.9291 48.9763 85.8039 49.1632 85.6806C49.1741 85.6734 49.1839 85.6662 49.1939 85.6599C49.3292 85.5707 49.465 85.4822 49.6015 85.3942C49.6727 85.3474 49.7439 85.3014 49.8161 85.2564C49.8882 85.2114 49.9585 85.1655 50.0306 85.1205C50.1809 85.025 50.3324 84.9307 50.4851 84.8377C50.6329 84.7467 50.7814 84.6564 50.9304 84.5666C51.2316 84.3856 51.5342 84.2088 51.8383 84.0362C51.9854 83.9516 52.1326 83.8684 52.2801 83.7868C52.3838 83.7292 52.4874 83.6715 52.592 83.6148C52.8246 83.486 53.0576 83.3605 53.2908 83.2384C53.5486 83.1024 53.8064 82.97 54.0662 82.8376C54.2345 82.7521 54.4037 82.6677 54.5739 82.5846L54.8065 82.4711C54.884 82.4333 54.9615 82.3955 55.039 82.3586C55.1906 82.2856 55.3427 82.2133 55.4952 82.1415C55.6765 82.0569 55.858 81.9734 56.0398 81.8912C56.1922 81.821 56.3446 81.7525 56.497 81.6859C56.5673 81.6544 56.6376 81.6228 56.708 81.5922C56.818 81.5436 56.928 81.4959 57.0371 81.449C57.1668 81.3932 57.2958 81.3374 57.4256 81.2833C57.5555 81.2293 57.6852 81.1735 57.816 81.1204C58.1526 80.9808 58.4904 80.8448 58.8294 80.7124C58.9899 80.6494 59.1503 80.5872 59.3118 80.526C59.3659 80.5044 59.419 80.4846 59.4732 80.4639C59.7662 80.3531 60.0605 80.2445 60.3559 80.1379C60.4929 80.0884 60.6309 80.0397 60.7678 79.9911C60.9328 79.9326 61.0981 79.8749 61.2637 79.8182C61.4026 79.7696 61.5424 79.7228 61.6813 79.6759C61.794 79.6372 61.9076 79.6003 62.0203 79.5634C62.3006 79.4697 62.5829 79.3788 62.8651 79.2905C62.9633 79.259 63.0616 79.2284 63.1607 79.1977C63.3736 79.1311 63.5867 79.066 63.8 79.0023C64.0705 78.9204 64.3419 78.8411 64.615 78.7628C64.7953 78.7106 64.976 78.6595 65.157 78.6097C65.3313 78.5602 65.5053 78.5122 65.679 78.4656C66.035 78.3684 66.3917 78.2741 66.7492 78.1829C66.9277 78.1369 67.1065 78.0919 67.2856 78.0478C67.4646 78.0037 67.6441 77.9595 67.8239 77.9154C68.3865 77.7794 68.9515 77.6489 69.519 77.5237C69.6037 77.5048 69.6894 77.4859 69.7742 77.4679C69.9329 77.4327 70.0907 77.3994 70.2494 77.3661C70.4423 77.3247 70.6358 77.2842 70.83 77.2445C70.8462 77.2409 70.8633 77.2373 70.8796 77.2346C71.0906 77.1914 71.3015 77.1488 71.5124 77.1067C71.6532 77.0788 71.7937 77.0509 71.9354 77.0239C72.0706 76.9978 72.2058 76.9717 72.3402 76.9465C72.7746 76.8645 73.2101 76.785 73.6466 76.7078C73.7737 76.6853 73.9 76.6628 74.027 76.6412C74.154 76.6196 74.2804 76.5971 74.4076 76.5763C74.5347 76.5556 74.66 76.5331 74.7863 76.5124C74.9125 76.4917 75.0395 76.4701 75.1658 76.4503C75.2695 76.4332 75.3732 76.4161 75.4769 76.3998C75.76 76.3548 76.0437 76.3104 76.328 76.2666C76.3632 76.2612 76.3983 76.2558 76.4344 76.2504C76.7355 76.2044 77.0369 76.1597 77.3386 76.1162L77.4154 76.1054C77.7282 76.0603 78.0408 76.0162 78.353 75.973C78.6741 75.9289 78.9947 75.8856 79.315 75.8433L79.9895 75.7569C80.1924 75.7308 80.3956 75.7052 80.599 75.6803C80.6207 75.6785 80.6423 75.6758 80.6639 75.6722C81.213 75.6056 81.7627 75.5411 82.3129 75.4786C82.5988 75.4462 82.8847 75.4147 83.1704 75.3841C83.1764 75.3831 83.1824 75.3825 83.1885 75.3823C83.4689 75.3516 83.7484 75.3219 84.0288 75.2922C84.1713 75.2778 84.3147 75.2625 84.4571 75.2481L85.1756 75.1751L85.3154 75.1616C85.6013 75.1328 85.887 75.1049 86.1728 75.0779C86.4488 75.0509 86.7256 75.0248 87.0014 74.9995L87.0293 74.9968L87.8868 74.9185C88.0293 74.905 88.1717 74.8924 88.3141 74.8798C88.8851 74.8293 89.4553 74.7798 90.0246 74.7312L90.7935 74.6663C91.1226 74.6384 91.4527 74.6105 91.7818 74.5835H91.7827L93.0062 74.4835C93.329 74.4574 93.6517 74.4295 93.9745 74.3998C94.1395 74.3854 94.3039 74.3701 94.4676 74.3539C94.6805 74.3341 94.8927 74.3133 95.1042 74.2917C95.2079 74.2818 95.3116 74.271 95.4143 74.2602C95.5361 74.2482 95.6578 74.2356 95.7795 74.2224C96.1491 74.1846 96.5185 74.1443 96.8876 74.1017C97.2564 74.0603 97.6251 74.0177 97.9939 73.9739C98.313 73.936 98.6319 73.8973 98.9505 73.8577C99.1849 73.8289 99.4193 73.7997 99.6538 73.7703C99.8413 73.7469 100.029 73.7229 100.218 73.6983C100.767 73.629 101.315 73.5569 101.865 73.4858L102.09 73.4561C102.384 73.4173 102.677 73.3795 102.97 73.3408C103.522 73.2687 104.074 73.1964 104.627 73.1238H104.628C104.904 73.0886 105.181 73.0526 105.457 73.0175C105.594 72.9995 105.732 72.9815 105.87 72.9644C106.008 72.9473 106.147 72.9293 106.285 72.9121C106.492 72.886 106.7 72.8602 106.908 72.8347C107.098 72.8113 107.288 72.7882 107.478 72.7654C108.049 72.696 108.62 72.6297 109.19 72.5663L109.756 72.5042L109.89 72.4907C110.028 72.4754 110.165 72.461 110.302 72.4475C110.439 72.434 110.576 72.4187 110.713 72.4052C110.987 72.4331 111.261 72.4613 111.535 72.4898C111.853 72.524 112.171 72.5591 112.489 72.5952C112.687 72.6168 112.883 72.6393 113.08 72.6627C113.869 72.7546 114.658 72.8506 115.445 72.9509C116.233 73.0499 117.02 73.1517 117.809 73.2561C118.596 73.3588 119.384 73.4633 120.171 73.565C120.513 73.61 120.857 73.6542 121.2 73.6974L121.219 73.7001C121.557 73.7433 121.896 73.7859 122.235 73.828C122.449 73.855 122.664 73.8814 122.878 73.9072C123.189 73.945 123.5 73.982 123.812 74.018C123.939 74.0333 124.066 74.0477 124.192 74.0621C124.322 74.0774 124.452 74.0927 124.581 74.1062C124.936 74.1468 125.291 74.1855 125.646 74.2224C125.857 74.2449 126.067 74.2665 126.277 74.2872C126.483 74.3088 126.689 74.3287 126.895 74.3485C126.912 74.3503 126.93 74.3521 126.948 74.353C127.109 74.3692 127.27 74.3836 127.431 74.398C127.761 74.4286 128.09 74.4565 128.42 74.4835C128.736 74.5097 129.053 74.5349 129.371 74.561L130.446 74.6501C130.518 74.6564 130.59 74.6627 130.661 74.6682C130.908 74.6889 131.154 74.7096 131.401 74.7312C131.908 74.7744 132.415 74.8185 132.923 74.8636H132.924C133.128 74.8816 133.333 74.8999 133.539 74.9185L134.396 74.9968L135.253 75.0779H135.255C135.787 75.1292 136.319 75.182 136.851 75.2364C137.319 75.2841 137.787 75.3333 138.255 75.3841C138.398 75.3994 138.541 75.4147 138.684 75.4309C138.87 75.4516 139.057 75.4732 139.243 75.4939C139.775 75.554 140.307 75.6167 140.838 75.6821C141.098 75.7146 141.358 75.747 141.618 75.7803C141.624 75.7812 141.629 75.7812 141.634 75.7821C141.651 75.7839 141.667 75.7866 141.682 75.7884C142.167 75.8505 142.65 75.9148 143.132 75.9811C143.362 76.0126 143.591 76.0447 143.819 76.0775C144.089 76.1162 144.357 76.1549 144.627 76.1954C144.864 76.2305 145.101 76.2666 145.337 76.3035C145.358 76.3071 145.379 76.3098 145.399 76.3134C145.641 76.3503 145.884 76.3887 146.126 76.4287C146.455 76.4818 146.782 76.5361 147.108 76.5917C147.428 76.6457 147.749 76.7015 148.068 76.7591C148.078 76.7601 148.088 76.7619 148.097 76.7646C148.261 76.7943 148.426 76.824 148.59 76.8546C148.755 76.8852 148.919 76.9149 149.083 76.9465C149.412 77.0086 149.74 77.0722 150.066 77.1374C150.189 77.1617 150.312 77.1869 150.434 77.2121C150.557 77.2373 150.68 77.2625 150.801 77.2878C150.923 77.313 151.046 77.3382 151.168 77.3643C151.29 77.3904 151.413 77.4165 151.535 77.4426C152.014 77.5462 152.492 77.6537 152.969 77.765C153.152 77.807 153.334 77.8503 153.517 77.8947C153.667 77.9316 153.816 77.9676 153.966 78.0046C154.127 78.0442 154.288 78.0838 154.448 78.1252C154.609 78.1667 154.77 78.2072 154.931 78.2486C155.091 78.29 155.252 78.3333 155.411 78.3756C155.571 78.4179 155.731 78.4611 155.892 78.5053C156.052 78.5494 156.211 78.5926 156.37 78.6376C156.528 78.6827 156.689 78.7277 156.847 78.7736C157.006 78.8195 157.165 78.8655 157.323 78.9123C157.424 78.942 157.525 78.9717 157.626 79.0023C157.762 79.0429 157.897 79.0834 158.032 79.1257C158.118 79.1518 158.202 79.1779 158.288 79.205C158.367 79.2293 158.445 79.2536 158.524 79.2788C158.657 79.3202 158.79 79.3625 158.922 79.4058C159.117 79.4679 159.312 79.5315 159.506 79.5967C159.587 79.6237 159.669 79.6507 159.751 79.6777C159.85 79.711 159.949 79.7444 160.048 79.7786C160.218 79.8371 160.387 79.8959 160.555 79.9551C160.629 79.9803 160.702 80.0064 160.775 80.0325C160.859 80.0622 160.942 80.092 161.026 80.1226C161.484 80.2865 161.939 80.4567 162.392 80.6332C162.583 80.707 162.773 80.7818 162.962 80.8574C163.152 80.933 163.341 81.0099 163.53 81.0879C163.633 81.1294 163.736 81.1717 163.838 81.2158C163.915 81.2482 163.992 81.2806 164.068 81.3131C164.084 81.3186 164.099 81.3249 164.114 81.332C164.178 81.3581 164.242 81.386 164.305 81.413C164.405 81.4553 164.505 81.4986 164.605 81.5436C164.694 81.5823 164.783 81.621 164.872 81.6607C165.059 81.7426 165.247 81.8273 165.433 81.9128C165.513 81.9488 165.592 81.9848 165.671 82.0218C165.847 82.1028 166.023 82.1848 166.199 82.2694C166.364 82.3475 166.529 82.4264 166.693 82.5062C166.897 82.6062 167.1 82.7062 167.302 82.8088C167.452 82.8845 167.602 82.961 167.752 83.0385C167.903 83.1159 168.053 83.1942 168.203 83.2744C168.328 83.3404 168.452 83.4071 168.576 83.4743C168.676 83.5274 168.775 83.5815 168.874 83.6364C169.022 83.7174 169.17 83.7994 169.317 83.8822C169.441 83.9516 169.566 84.0227 169.689 84.0939C169.791 84.1515 169.893 84.2109 169.994 84.2704C170.015 84.2821 170.036 84.2947 170.057 84.3073C170.144 84.3577 170.23 84.4081 170.316 84.4595C170.327 84.4658 170.338 84.473 170.35 84.4802C170.458 84.5441 170.566 84.609 170.674 84.6747C170.996 84.8701 171.317 85.0697 171.636 85.2735C171.792 85.3726 171.948 85.4735 172.102 85.5752C172.109 85.5788 172.115 85.5833 172.123 85.5878C172.279 85.6905 172.434 85.7931 172.588 85.8976C172.707 85.9768 172.825 86.0579 172.943 86.1389C173.071 86.2272 173.198 86.3157 173.325 86.4046C173.417 86.4694 173.51 86.5343 173.602 86.6C173.704 86.6729 173.806 86.7468 173.908 86.8206C173.951 86.8512 173.994 86.8828 174.038 86.9152C174.489 87.2454 174.936 87.5852 175.379 87.9346C175.51 88.0381 175.64 88.1426 175.77 88.2479C175.972 88.41 176.173 88.5751 176.373 88.7432C176.491 88.8414 176.608 88.9404 176.724 89.0404C176.727 89.0422 176.729 89.044 176.732 89.0458C176.87 89.1638 177.007 89.2826 177.143 89.4024C177.261 89.506 177.379 89.6095 177.496 89.7158C177.539 89.7527 177.581 89.7905 177.622 89.8284C177.713 89.9103 177.804 89.9922 177.894 90.0751C178.056 90.2237 178.218 90.3741 178.379 90.5263C178.48 90.6208 178.579 90.7163 178.679 90.8126C178.901 91.0269 179.123 91.2443 179.344 91.4646C183.613 95.7447 186.231 101.358 190.513 105.624C190.576 105.687 190.639 105.749 190.703 105.809C190.767 105.869 190.829 105.928 190.893 105.985L190.898 105.989C190.962 106.047 191.026 106.103 191.091 106.158C191.142 106.202 191.194 106.246 191.246 106.288C191.278 106.316 191.311 106.342 191.344 106.368C191.379 106.397 191.415 106.426 191.451 106.453C191.531 106.516 191.61 106.577 191.69 106.636C191.758 106.686 191.825 106.736 191.894 106.783C191.939 106.816 191.984 106.847 192.03 106.878C192.036 106.882 192.043 106.887 192.049 106.89C192.081 106.913 192.114 106.935 192.147 106.957C192.257 107.032 192.369 107.103 192.481 107.172C192.53 107.203 192.58 107.234 192.63 107.263C192.675 107.291 192.721 107.319 192.767 107.345C192.826 107.38 192.886 107.415 192.946 107.449C192.997 107.478 193.05 107.507 193.102 107.536C193.138 107.556 193.174 107.576 193.211 107.596C193.286 107.637 193.362 107.677 193.438 107.716C193.536 107.768 193.634 107.817 193.733 107.866C193.743 107.871 193.752 107.876 193.762 107.881C193.855 107.927 193.949 107.973 194.043 108.017C194.078 108.034 194.111 108.049 194.145 108.065C194.212 108.097 194.28 108.128 194.348 108.158C194.472 108.216 194.597 108.272 194.721 108.326C194.798 108.36 194.875 108.393 194.951 108.425C195.028 108.457 195.104 108.491 195.181 108.523C195.335 108.588 195.49 108.652 195.646 108.715C195.88 108.81 196.115 108.905 196.352 108.999C196.747 109.157 197.147 109.316 197.55 109.481C201.398 111.059 204.052 113.177 206.888 116.222C207.887 117.294 208.917 118.391 209.947 119.515C210.105 119.687 210.262 119.859 210.418 120.032C211.069 120.747 211.717 121.472 212.353 122.208C212.488 122.363 212.621 122.519 212.754 122.675C212.796 122.725 212.838 122.775 212.882 122.825C213.152 123.144 213.42 123.465 213.686 123.789C213.706 123.812 213.725 123.836 213.745 123.86C213.87 124.014 213.996 124.169 214.12 124.324C214.399 124.67 214.674 125.019 214.944 125.371C215.681 126.329 216.384 127.306 217.039 128.304C217.094 128.388 217.148 128.47 217.202 128.554C217.364 128.805 217.523 129.056 217.677 129.309C217.729 129.393 217.78 129.477 217.831 129.562C217.886 129.651 217.939 129.739 217.991 129.828C218.038 129.909 218.086 129.991 218.133 130.072C218.162 130.122 218.192 130.173 218.221 130.225C218.262 130.297 218.304 130.37 218.345 130.443C218.409 130.555 218.472 130.668 218.533 130.781C218.582 130.869 218.629 130.959 218.677 131.047C218.879 131.422 219.072 131.801 219.255 132.181C219.29 132.253 219.324 132.325 219.358 132.396C219.362 132.406 219.367 132.415 219.371 132.425C219.407 132.498 219.441 132.572 219.475 132.647C219.523 132.75 219.57 132.853 219.615 132.956C219.653 133.039 219.689 133.123 219.725 133.205C219.764 133.295 219.802 133.384 219.839 133.473C220.906 136.01 221.64 138.785 221.367 141.503Z" fill="#705CA7" />
		<path d="M180.053 130.137C180.683 128.757 180.968 127.25 181.318 125.775C181.667 124.299 182.101 122.807 182.978 121.568C184.091 119.996 185.833 118.965 187.647 118.315C192.672 116.513 198.6 117.49 202.778 120.809C200.287 120.033 197.722 119.519 195.124 119.276C193.746 119.148 192.332 119.098 191.002 119.479C188.803 120.109 187.086 121.843 185.799 123.732C184.513 125.621 183.553 127.718 182.238 129.587C181.274 130.957 179.966 132.468 178.384 133.138C177.202 133.639 178.054 132.77 178.493 132.365C179.155 131.732 179.685 130.975 180.053 130.137Z" fill="#432F87" />
		<path d="M41.5463 130.137C40.9163 128.757 40.6315 127.25 40.282 125.775C39.9326 124.299 39.4985 122.807 38.6218 121.568C37.5087 119.996 35.767 118.965 33.9525 118.315C28.9276 116.513 22.9996 117.49 18.8212 120.809C21.3123 120.033 23.8778 119.519 26.4758 119.276C27.8538 119.148 29.2676 119.098 30.5979 119.479C32.7966 120.109 34.5137 121.843 35.8002 123.732C37.0867 125.621 38.0468 127.718 39.3616 129.587C40.3252 130.957 41.6336 132.468 43.2161 133.138C44.398 133.639 43.5455 132.77 43.1063 132.365C42.4444 131.732 41.9142 130.975 41.5463 130.137Z" fill="#432F87" />
		<path d="M221.367 141.505C221.187 139.569 220.596 137.647 219.839 135.845C217.104 129.347 211.64 123.697 206.887 118.594C204.052 115.55 201.397 113.432 197.549 111.855C194.971 110.797 192.529 110.008 190.512 107.998C186.23 103.73 183.613 98.1172 179.343 93.8371C165.756 80.2213 146.541 78.3311 128.419 76.8569C122.495 76.3752 116.624 75.3711 110.712 74.7785C104.8 75.3711 98.93 76.3752 93.0055 76.8569C74.8841 78.3311 55.669 80.2213 42.0817 93.8371C37.8116 98.1172 35.1943 103.73 30.9125 107.998C28.8956 110.008 26.454 110.797 23.8755 111.855C20.0274 113.432 17.373 115.55 14.5374 118.594C9.78425 123.697 4.32039 129.347 1.58581 135.845C0.828456 137.647 0.237991 139.569 0.0576693 141.505C-0.21642 138.786 0.518392 136.01 1.58581 133.472C4.32039 126.974 9.78425 121.324 14.5374 116.221C17.373 113.177 20.0274 111.059 23.8755 109.481C26.4541 108.424 28.8956 107.634 30.9125 105.624C35.1943 101.357 37.8116 95.7444 42.0817 91.4642C55.6689 77.8475 74.8841 75.9573 93.0055 74.4832C98.93 74.0014 104.8 72.9973 110.712 72.4048C116.624 72.9973 122.495 74.0014 128.419 74.4832C146.541 75.9573 165.756 77.8475 179.343 91.4642C183.613 95.7444 186.23 101.357 190.512 105.624C192.529 107.634 194.971 108.424 197.549 109.481C201.397 111.059 204.052 113.177 206.887 116.221C211.64 121.324 217.104 126.974 219.839 133.472C220.906 136.01 221.641 138.786 221.367 141.505Z" fill="#D2C7F0" />
		<path d="M155.687 155.901C155.678 156.797 155.599 157.558 155.442 158.167C154.459 159.396 152.856 160.861 150.831 162.469C146.416 165.976 139.998 170.161 133.641 174.054C122.682 180.765 111.909 186.608 111.909 186.608C111.909 186.608 97.3243 178.882 85.2302 170.788C80.7682 167.802 76.6451 164.767 73.7185 162.05C70.8126 159.351 69.0878 156.967 69.3844 155.262C69.5819 154.128 70.085 151.77 70.8035 148.552C71.3634 146.046 72.0541 143.019 72.834 139.644C78.1859 116.481 87.7115 76.9258 87.7115 76.9258L133.185 79.6093C133.185 79.6093 144.824 110.484 151.361 133.934C153.946 143.207 155.733 151.319 155.687 155.901Z" fill="#F3F4F5" />
		<path d="M134.631 129.151C134.35 129.802 134.165 130.551 133.749 131.136C132.293 133.183 130.796 135.204 129.238 137.174C128.339 138.311 127.19 138.794 125.633 138.407C123.816 137.954 121.927 137.798 120.084 137.437C118.772 137.18 117.29 137.178 116.389 135.993C115.85 135.285 115.501 134.411 115.169 133.571C114.527 131.945 113.97 130.286 113.353 128.649C112.767 127.095 113.133 125.779 114.186 124.538C115.422 123.081 116.589 121.565 117.767 120.06C118.564 119.043 119.609 118.596 120.875 118.668C122.469 118.76 124.063 118.861 125.652 119.011C126.756 119.115 127.89 119.178 128.939 119.496C130.004 119.819 130.54 120.825 131.039 121.779C132.05 123.712 133.087 125.63 134.082 127.57C134.314 128.022 134.422 128.537 134.631 129.151ZM125.903 134.336C126.035 134.258 126.335 134.172 126.488 133.974C127.591 132.536 128.651 131.065 129.756 129.628C130.14 129.128 129.974 128.699 129.729 128.25C129.005 126.921 128.225 125.619 127.565 124.259C127.252 123.612 126.816 123.361 126.164 123.321C125.472 123.28 124.78 123.235 124.088 123.192C123.165 123.135 122.242 123.059 121.318 123.039C121.199 123.044 121.082 123.072 120.975 123.122C120.867 123.172 120.77 123.243 120.689 123.33C119.739 124.478 118.812 125.645 117.89 126.816C117.601 127.184 117.38 127.514 117.627 128.081C118.215 129.389 118.715 130.733 119.124 132.107C119.392 133.04 119.918 133.339 120.805 133.426C121.8 133.522 122.782 133.749 123.768 133.927C124.426 134.045 125.081 134.178 125.903 134.336H125.903Z" fill="#D72235" />
		<path d="M103.994 125.957C104.667 126.048 105.85 126.214 107.034 126.367C107.967 126.488 108.915 126.533 109.834 126.721C111.038 126.968 111.758 127.839 112.165 128.933C112.891 130.879 113.485 132.876 114.265 134.798C114.933 136.445 114.576 137.826 113.552 139.147C112.196 140.898 110.867 142.671 109.478 144.395C108.456 145.663 107.342 146.228 105.445 145.616C104.145 145.196 102.782 144.976 101.45 144.654C100.702 144.473 99.937 144.328 99.2217 144.055C98.0265 143.601 97.4628 142.585 97.175 141.412C96.8685 140.162 96.584 138.904 96.3371 137.641C96.1107 136.482 95.9097 135.315 95.7678 134.144C95.6572 133.231 96.1621 132.502 96.7055 131.837C97.8866 130.392 99.1435 129.006 100.282 127.528C101.113 126.448 102.12 125.885 103.994 125.957ZM99.508 134.673C99.6242 135.145 99.7268 135.526 99.8116 135.912C100.119 137.311 100.402 138.717 100.746 140.107C100.801 140.327 101.098 140.584 101.332 140.647C102.918 141.075 104.512 141.471 106.116 141.834C106.349 141.887 106.74 141.797 106.878 141.627C108.085 140.14 109.264 138.631 110.416 137.101C110.606 136.849 110.804 136.426 110.722 136.171C110.188 134.511 109.567 132.878 108.999 131.228C108.819 130.704 108.538 130.426 107.954 130.366C106.624 130.23 105.294 130.066 103.979 129.831C103.524 129.75 103.244 129.869 102.994 130.174C101.916 131.49 100.844 132.812 99.7805 134.141C99.6484 134.305 99.5829 134.523 99.508 134.672V134.673Z" fill="#705CA7" />
		<path d="M126 102.308C127.242 102.308 128.485 102.27 129.724 102.32C130.703 102.359 131.434 102.886 131.957 103.71C132.899 105.195 133.806 106.704 134.804 108.151C135.836 109.646 135.609 111.012 134.504 112.355C133.59 113.466 132.736 114.625 131.844 115.754C131.381 116.339 130.949 116.966 130.405 117.467C129.601 118.208 128.616 118.438 127.502 118.321C125.601 118.122 123.688 118.038 121.786 117.851C121.108 117.775 120.441 117.622 119.798 117.394C118.747 117.033 118.459 116.017 118.047 115.14C117.385 113.732 116.709 112.327 116.143 110.88C115.808 110.025 115.828 109.082 116.436 108.315C117.753 106.653 119.087 105.005 120.468 103.398C121.099 102.665 121.965 102.303 122.966 102.317C123.977 102.332 124.989 102.32 126 102.32L126 102.308ZM126.131 105.859V105.896C125.353 105.896 124.57 105.849 123.797 105.917C123.418 105.95 122.943 106.097 122.708 106.365C121.758 107.447 120.881 108.593 119.991 109.728C119.899 109.845 119.828 110.076 119.881 110.194C120.473 111.491 121.086 112.778 121.71 114.061C121.746 114.126 121.796 114.182 121.856 114.226C121.917 114.27 121.986 114.301 122.059 114.315C123.859 114.456 125.662 114.569 127.463 114.711C127.937 114.749 128.227 114.554 128.497 114.193C129.453 112.92 130.439 111.67 131.39 110.393C131.494 110.254 131.536 109.949 131.455 109.812C130.817 108.742 130.136 107.699 129.481 106.64C129.128 106.067 128.693 105.748 127.961 105.843C127.36 105.92 126.741 105.859 126.131 105.859L126.131 105.859Z" fill="#E88C39" />
		<path d="M85.1245 124.012C85.0877 122.873 85.6917 122.061 86.3688 121.276C87.4318 120.044 88.4986 118.815 89.5454 117.569C90.3855 116.57 91.4356 116.228 92.7185 116.376C94.0733 116.534 95.4355 116.671 96.7975 116.709C98.091 116.746 99.0838 117.647 99.4189 118.82C99.8907 120.472 100.282 122.148 100.79 123.788C101.119 124.851 100.793 125.779 100.216 126.553C98.9447 128.256 97.5472 129.866 96.2008 131.513C95.2546 132.67 94.0322 132.909 92.6251 132.625C91.093 132.317 89.55 132.062 88.0166 131.759C87.1176 131.581 86.4118 130.991 86.2249 130.163C85.7682 128.133 85.4805 126.065 85.1245 124.012ZM96.593 119.499C95.1313 119.415 93.7265 119.317 92.32 119.272C92.0403 119.283 91.7759 119.402 91.583 119.605C90.4965 120.821 89.4321 122.058 88.3898 123.313C88.2088 123.531 88.0382 123.877 88.0731 124.135C88.2956 125.783 88.577 127.424 88.8337 129.034C90.0969 129.268 91.2972 129.543 92.5131 129.689C93.0343 129.752 93.6435 130.147 94.1379 129.527C95.3768 127.975 96.6386 126.442 97.8701 124.884C97.9276 124.794 97.9662 124.693 97.9835 124.588C98.0009 124.482 97.9966 124.374 97.971 124.271C97.534 122.695 97.0675 121.127 96.5934 119.499H96.593Z" fill="#3B8CCB" />
		<path d="M114.411 95.3324C115.263 95.3796 116.169 95.1995 116.856 95.8823C117.232 96.257 117.555 96.6803 117.818 97.1411C118.49 98.3252 119.115 99.5358 119.752 100.74C120.386 101.939 120.046 102.989 119.241 103.965C118.071 105.385 116.902 106.805 115.734 108.227C115.013 109.102 114.082 109.554 112.95 109.518C110.973 109.455 108.998 109.345 107.021 109.282C106.039 109.251 105.39 108.67 105.06 107.889C104.434 106.407 103.986 104.852 103.431 103.339C103.089 102.41 103.344 101.575 103.901 100.885C105.079 99.422 106.314 98 107.592 96.6218C108.177 95.9907 108.964 95.6509 109.875 95.6133C111.389 95.5501 112.9 95.4289 114.411 95.3324ZM106.127 102.638C106.593 103.847 107.06 104.994 107.469 106.161C107.584 106.488 107.723 106.578 108.042 106.579C109.705 106.581 111.368 106.612 113.03 106.604C113.25 106.591 113.456 106.493 113.605 106.331C114.751 104.966 115.881 103.587 116.995 102.194C117.086 102.08 117.094 101.81 117.024 101.671C116.492 100.62 115.939 99.5793 115.367 98.5488C115.275 98.384 115.037 98.1877 114.873 98.1931C113.298 98.2444 111.725 98.323 110.152 98.4288C109.914 98.4588 109.694 98.5722 109.531 98.7488C108.379 100.04 107.249 101.35 106.127 102.638Z" fill="#DFC423" />
		<path d="M104.451 108.949C104.501 109.857 104.013 110.549 103.485 111.193C102.437 112.47 101.353 113.716 100.275 114.968C99.5093 115.857 98.5891 116.292 97.3607 116.137C96.0069 115.959 94.6431 115.868 93.2777 115.865C92.1381 115.867 90.987 115.043 90.7944 113.861C90.5674 112.47 90.1903 111.104 89.8927 109.723C89.8097 109.343 89.8147 108.95 89.9075 108.572C90.0003 108.195 90.1783 107.843 90.4279 107.545C91.5369 106.195 92.7316 104.916 93.9039 103.619C94.5545 102.899 95.3878 102.572 96.3544 102.573C97.8497 102.573 99.3449 102.574 100.84 102.573C101.618 102.574 102.31 102.919 102.584 103.585C103.267 105.238 103.811 106.949 104.407 108.639C104.432 108.74 104.447 108.844 104.451 108.949ZM93.5398 113.059C94.8857 113.146 96.1833 113.243 97.4825 113.302C97.6989 113.312 97.9964 113.223 98.1308 113.07C99.2505 111.797 100.35 110.505 101.43 109.197C101.52 109.089 101.523 108.842 101.471 108.693C101.145 107.751 100.759 106.829 100.466 105.878C100.345 105.484 100.199 105.337 99.7878 105.357C98.6546 105.411 97.5193 105.42 96.3862 105.474C96.1844 105.491 95.9953 105.579 95.8535 105.724C94.849 106.842 93.8578 107.973 92.8799 109.115C92.787 109.223 92.707 109.413 92.7346 109.541C92.9837 110.696 93.2581 111.845 93.5398 113.059Z" fill="#86C442" />
		<path d="M155.687 155.901C150.056 160.548 141.673 167.459 133.641 174.054C122.682 180.765 111.909 186.608 111.909 186.608C111.909 186.608 97.3243 178.882 85.2302 170.788C89.9826 167.675 101.676 160.99 115.497 160.179C119.086 159.965 122.621 161.129 125.378 163.434C129.451 166.875 136.426 170.951 140.791 163.462C144.579 156.964 132.459 155.193 121.765 154.842C114.944 154.63 108.124 155.275 101.464 156.761C98.1187 157.501 93.4538 158.22 87.7466 158.301C82.7805 158.371 77.92 159.654 73.7185 162.05C70.8126 159.351 69.0878 156.967 69.3844 155.262C69.5819 154.128 70.085 151.769 70.8035 148.552L84.0419 153.539C88.8044 155.319 94.0493 155.328 98.8174 153.562C104.419 151.476 111.893 149.003 115.846 149.003C122.683 149.003 137.667 161.125 142.085 150.937C148.417 136.334 135.705 88.7295 135.452 88.3098L137.571 93.549C140.156 102.823 155.733 151.319 155.687 155.901Z" fill="#D3D5D6" />
		<path d="M85.0613 83.5146C85.0613 83.5146 97.0568 86.6623 110.712 85.9961C128.507 85.128 138.982 84.024 138.982 84.024L135.254 75.0781L87.7117 76.9261L85.0613 83.5146Z" fill="#C8CACB" />
		<path d="M90.6155 39.732C90.0749 42.8791 90.1164 46.0984 90.7381 49.2305C91.0468 50.781 91.5274 52.3598 92.5834 53.5373C92.86 53.8457 93.2205 54.1401 93.6344 54.1187C94.3036 54.084 94.6344 53.3018 94.7748 52.6474C95.4639 49.434 95.2193 46.1584 94.3464 43.0063C94.0194 41.825 91.2042 36.316 90.6155 39.732Z" fill="#ED9E58" />
		<path d="M127.444 43.1315C126.528 46.1338 126.389 49.5099 127.065 52.3674C127.158 52.7619 127.304 53.2007 127.672 53.3712C128.032 53.538 128.477 53.364 128.74 53.0673C129.004 52.7706 129.126 52.3781 129.237 51.9975C130.055 49.1936 130.637 46.3265 130.978 43.4261C131.133 42.1105 131.234 40.7507 130.846 39.4841C130.715 39.0569 130.41 38.5716 129.966 38.6227C129.676 38.6562 129.47 38.9118 129.306 39.1527C128.49 40.3787 127.862 41.7199 127.444 43.1315Z" fill="#ED9E58" />
		<path d="M139.509 80.4447C123.979 86.0513 84.874 81.7532 84.874 81.7532C88.9899 76.5203 94.4672 70.5408 94.4672 70.5408L94.8098 63.7707L94.9775 60.4487L127.721 59.7013L127.757 63.4916L127.823 70.5408L139.509 80.4447Z" fill="#ED9E58" />
		<path d="M127.757 63.4916C127.751 63.5847 127.739 63.6773 127.721 63.7689C127.533 64.3291 121.359 73.1127 118.927 74.6076C116.494 76.1024 110.508 75.5423 108.823 75.5423C107.139 75.5423 95.7256 66.5723 94.9773 64.5164C94.9012 64.2728 94.8451 64.0234 94.8096 63.7707L94.9773 60.4487L127.721 59.7013L127.757 63.4916Z" fill="#A16633" />
		<path d="M93.1064 36.3414C93.1064 36.3414 94.229 58.3933 94.9774 60.449C95.7258 62.5047 107.139 71.4748 108.823 71.4748C110.507 71.4748 116.495 72.0354 118.927 70.5404C121.359 69.0454 127.534 60.262 127.721 59.7014C127.908 59.1409 129.392 29.4269 127.721 25.8762C126.05 22.3255 111.63 16.7191 103.771 19.7092C95.9129 22.6993 92.6217 27.763 93.1064 36.3414Z" fill="#FFB573" />
		<path d="M127.721 59.7013C127.534 60.2623 121.359 69.0451 118.927 70.5408C117.349 71.5107 114.276 71.6152 111.852 71.5692C113.872 71.5242 115.99 71.291 117.212 70.5408C119.645 69.0451 125.819 60.2623 126.006 59.7013C126.192 59.1403 127.677 29.4269 126.006 25.8761C124.715 23.1341 115.823 19.1664 108.219 18.8782C116.136 18.5531 126.332 22.9251 127.721 25.8761C129.392 29.4269 127.908 59.1412 127.721 59.7013Z" fill="#E8CFBA" />
		<path d="M123.184 38.7503L124.092 37.5274C122.304 36.2021 120.611 35.732 119.057 36.1398C116.787 36.7304 115.752 38.9772 115.709 39.0724L117.099 39.6995C117.106 39.6828 117.891 38.0102 119.452 37.6103C120.534 37.3354 121.79 37.7168 123.184 38.7503Z" fill="black" />
		<path d="M118.591 42.4053C118.66 42.8002 118.844 43.166 119.12 43.4565C119.396 43.7469 119.753 43.949 120.144 44.0372C120.536 44.1254 120.944 44.0957 121.319 43.9519C121.693 43.808 122.017 43.5565 122.248 43.2291C122.479 42.9018 122.608 42.5132 122.619 42.1126C122.629 41.7121 122.52 41.3174 122.306 40.9786C122.091 40.6399 121.781 40.3721 121.415 40.2093C121.048 40.0465 120.641 39.9959 120.246 40.064C119.984 40.1092 119.732 40.2056 119.507 40.3477C119.282 40.4898 119.087 40.6749 118.933 40.8923C118.78 41.1097 118.67 41.3552 118.612 41.6149C118.553 41.8745 118.546 42.1431 118.591 42.4053Z" fill="black" />
		<path d="M99.7673 38.7503L98.8588 37.5274C100.647 36.2021 102.34 35.732 103.894 36.1398C106.164 36.7304 107.198 38.9772 107.241 39.0724L105.852 39.6995C105.844 39.6828 105.06 38.0102 103.499 37.6103C102.417 37.3354 101.161 37.7168 99.7673 38.7503Z" fill="black" />
		<path d="M104.359 42.4053C104.291 42.8002 104.107 43.166 103.831 43.4565C103.555 43.7469 103.198 43.949 102.807 44.0372C102.415 44.1254 102.007 44.0957 101.632 43.9519C101.258 43.808 100.934 43.5565 100.703 43.2291C100.472 42.9018 100.343 42.5132 100.332 42.1126C100.322 41.7121 100.431 41.3174 100.645 40.9786C100.86 40.6399 101.17 40.3721 101.536 40.2093C101.903 40.0465 102.309 39.9959 102.705 40.064C102.967 40.1092 103.219 40.2056 103.444 40.3477C103.669 40.4898 103.864 40.6749 104.018 40.8923C104.171 41.1097 104.281 41.3552 104.339 41.6149C104.398 41.8745 104.405 42.1431 104.359 42.4053Z" fill="black" />
		<path d="M93.8458 41.7938C93.8458 41.7938 95.4009 33.6673 97.0226 30.0541C98.036 27.8288 99.382 25.7701 101.014 23.9486C101.014 23.9486 112.117 25.4434 118.479 26.1913C122.416 26.6539 127.034 26.1898 130.423 23.9658C133.535 21.9228 134.392 17.3717 132.633 14.0071C132.292 13.3546 131.813 12.7854 131.339 12.2222L129.562 10.1121C129.94 11.1347 130.316 12.2904 129.857 13.2796C129.343 14.3873 127.924 14.8281 126.723 14.6029C125.523 14.3776 124.49 13.6431 123.5 12.9279C122.142 11.9463 120.987 10.9321 119.352 10.4933C110.994 8.25106 98.0289 10.9083 93.846 18.8617C89.663 26.815 91.8011 38.8212 91.8011 38.8212L93.8458 41.7938Z" fill="black" />
		<path d="M129.856 14.4674C129.343 15.5751 127.924 16.0163 126.723 15.7912C125.522 15.5661 124.49 14.8312 123.5 14.1153C122.142 13.1347 120.986 12.1198 119.352 11.6812C110.994 9.43804 98.0284 12.0964 93.846 20.0497C91.8795 23.7878 91.3096 28.4227 91.2583 32.2841C91.206 28.2165 91.6731 22.9917 93.846 18.861C98.0284 10.9077 110.994 8.25026 119.352 10.4934C120.986 10.932 122.142 11.946 123.5 12.9275C124.49 13.6434 125.522 14.3774 126.723 14.6025C127.924 14.8276 129.343 14.3873 129.856 13.2796C129.925 13.1328 129.976 12.9787 130.01 12.8204C130.108 13.3868 130.096 13.9496 129.856 14.4674Z" fill="#878787" />
		<path d="M130.01 12.8204C129.907 12.3011 129.757 11.7922 129.562 11.3003C129.723 11.4912 129.883 11.683 130.045 11.8739C130.086 12.1892 130.074 12.509 130.01 12.8204Z" fill="#878787" />
		<path d="M128.584 41.9092C128.584 41.9092 127.668 34.9963 127.086 31.2585C126.504 27.5207 124.093 25.3611 124.093 25.3611L131.116 22.454C131.116 22.454 131.487 25.6933 131.116 28.8497C130.745 32.0061 130.846 39.484 130.846 39.484C130.846 39.484 129.029 40.1287 128.584 41.9092Z" fill="black" />
		<path d="M120.47 55.4439C120.341 55.2746 120.066 55.0009 119.832 55.009C119.597 55.0171 119.702 55.2359 119.798 55.362C119.856 55.4389 119.909 55.5192 119.958 55.6024C119.846 55.5192 119.711 55.4755 119.572 55.4781C118.537 55.561 117.501 55.6261 116.464 55.6736C113.278 55.8193 110.087 55.7989 106.904 55.6123C105.494 55.5295 104.085 55.4142 102.678 55.2665C102.585 55.2566 102.557 55.2962 102.568 55.3611C102.537 55.3422 102.502 55.3306 102.465 55.3274C102.429 55.3241 102.392 55.3291 102.358 55.3422C102.406 55.307 102.453 55.271 102.502 55.2377C102.693 55.1098 101.939 54.3174 101.643 54.5164C101.052 54.9098 100.591 55.4695 100.318 56.1247C100.18 56.4525 101.089 57.0559 101.177 56.846C101.421 56.2611 101.816 55.7512 102.322 55.3683C102.201 55.4853 102.399 55.7078 102.483 55.7969C102.902 56.235 103.349 56.6442 103.823 57.0216C105.366 58.265 107.172 59.1403 109.104 59.5809C109.769 59.7298 110.446 59.8208 111.127 59.8529C114.442 60.0078 117.716 58.7335 120.095 56.4336C120.113 56.412 120.124 56.3855 120.126 56.3576C120.129 56.3297 120.123 56.3016 120.11 56.2769C120.15 56.2742 120.188 56.2706 120.228 56.2679C120.276 56.465 120.302 56.6667 120.307 56.8694C120.312 57.1 120.563 57.3107 120.738 57.4278C120.801 57.4683 121.213 57.6961 121.208 57.4782C121.187 56.7386 120.928 56.0254 120.47 55.4439Z" fill="#A16633" />
		<path d="M115.636 61.2276C112.802 62.0274 109.785 61.8884 107.037 60.8314C106.812 60.7447 106.78 60.8886 106.842 61.0629C106.923 61.2875 107.239 61.4917 107.45 61.5731C110.305 62.6779 113.442 62.8312 116.391 62.0101C116.662 61.9344 115.951 61.1395 115.636 61.2276Z" fill="#A16633" />
		<path d="M115.686 48.5976C115.681 48.5934 115.675 48.5886 115.668 48.5831C114.562 46.7227 113.972 44.601 113.961 42.437C113.958 41.9736 113.237 41.9726 113.239 42.437C113.252 44.7345 113.878 46.9869 115.054 48.9616C115.078 49.0027 115.109 49.0385 115.147 49.0668C115.185 49.0951 115.228 49.1154 115.274 49.1264C115.32 49.1374 115.367 49.1388 115.414 49.1306C115.46 49.1224 115.505 49.1047 115.544 49.0787C115.829 49.5049 115.606 50.1104 115.04 50.1271C114.7 50.1371 114.365 49.9259 114.027 49.8925C113.179 49.8088 113.104 50.7342 112.353 50.8796C111.469 51.0507 110.642 50.3579 109.755 50.3509C109.284 50.3472 108.822 50.4785 108.351 50.4319C107.914 50.3884 108.174 49.8633 108.51 49.7671C108.782 49.6893 108.068 48.8946 107.754 48.9844C107.306 49.1126 107.154 49.5797 107.289 50.002C107.445 50.4875 107.935 50.8767 108.389 51.0689C109.001 51.3279 109.583 51.1782 110.219 51.1467C111.048 51.1059 111.732 51.6054 112.539 51.6817C113.131 51.7378 113.592 51.5682 113.943 51.0874C114.459 50.3818 114.95 50.873 115.643 50.9157C116.174 50.9486 116.574 50.5993 116.58 50.0551C116.587 49.4587 116.1 48.9611 115.686 48.5976Z" fill="#A16633" />
		<path d="M94.4668 70.5404V77.524L93.5277 71.5778L94.4668 70.5404Z" fill="#A16633" />
		<path d="M127.823 70.5404L128.879 77.524L129.665 72.7885L127.823 70.5404Z" fill="#A16633" />
		<path d="M103.371 56.0636C108.385 56.5837 113.433 56.6929 118.465 56.39C114.099 59.9197 107.532 59.9964 103.371 56.0636Z" fill="#F2FBFD" />
		<path d="M80.7239 82.7028C81.8369 81.5068 82.8199 80.1964 83.6565 78.7936C84.2299 77.8121 84.7226 76.743 84.6835 75.5957C82.6952 77.4433 79.8473 78.9174 77.5827 80.4602C71.2159 84.7978 64.9421 86.008 57.3088 86.1171C55.3551 86.145 34.6681 85.0155 34.8343 83.2859C34.5622 86.1183 36.3959 88.8403 38.8092 90.3525C41.2226 91.8648 44.1249 92.371 46.9611 92.6384C54.2011 93.3213 61.487 92.599 68.4864 90.659C72.7362 89.4811 77.3842 86.3428 80.7239 82.7028Z" fill="#8C1623" />
		<path d="M53.6631 121.12C53.6631 121.12 47.7305 100.975 50.8946 91.7578C50.8946 91.7578 43.3802 106.242 53.6631 121.12Z" fill="#432F87" />
		<path d="M113.52 190.887C113.586 189.344 112.04 188.208 110.843 189.489C109.882 190.517 110.155 192.725 111.91 192.62C112.773 192.568 113.483 191.75 113.52 190.887Z" fill="#432F87" />
		<path d="M200.632 63.8491C200.632 63.8491 207.185 67.5554 210.916 73.4576L208.756 82.8897L196.584 77.7913L186.102 61.7124L200.632 63.8491Z" fill="#8C1623" />
		<path d="M155.071 80.7282C156.16 79.991 157.16 79.1312 158.053 78.1659C160.164 75.8596 160.436 73.1337 161.934 70.5764C163.092 68.5984 165.173 66.7273 166.831 65.178C171.078 61.2097 176.514 58.2251 182.415 57.9288C192.067 57.4443 201.134 63.494 201.59 64.5305C201.083 63.3877 189.522 64.7989 186.666 65.2317C180.847 66.1136 175.237 68.5754 170.861 72.541C166.03 76.9196 163.425 83.1781 157.287 86.0668C153.397 87.8975 149.002 88.4721 144.707 88.2718C142.85 88.1851 140.951 87.9438 139.308 87.0762C137.665 86.2085 136.311 84.6047 136.186 82.7525C140.124 85.7274 145.752 85.0668 150.33 83.2183C151.995 82.5613 153.585 81.7264 155.071 80.7282Z" fill="#D72235" />
		<path d="M201.575 64.5008C201.512 64.4023 201.361 64.3239 201.138 64.2635C198.111 62.1675 190.963 58.5981 183.463 58.9753C177.562 59.2724 172.127 62.256 167.879 66.2244C166.221 67.7733 164.14 69.6449 162.982 71.6223C161.484 74.1798 161.212 76.9055 159.101 79.2117C158.209 80.1772 157.208 81.037 156.119 81.7744C154.633 82.7727 153.043 83.6076 151.378 84.2646C146.801 86.1132 141.172 86.7739 137.234 83.799C137.298 84.7595 137.694 85.6525 138.288 86.4119C137.135 85.5007 136.284 84.2022 136.187 82.752C140.125 85.727 145.753 85.0672 150.331 83.2186C151.996 82.5615 153.585 81.7262 155.07 80.7274C156.16 79.9907 157.161 79.1312 158.053 78.1657C160.165 75.8595 160.437 73.1329 161.934 70.5763C163.092 68.598 165.173 66.7273 166.831 65.1774C171.078 61.2097 176.514 58.2246 182.416 57.929C191.981 57.4485 200.972 63.3865 201.575 64.5008Z" fill="#FF8591" />
		<path d="M41.9505 91.7473C41.9505 91.7473 33.2837 86.7016 38.1411 81.5099C42.9985 76.3181 47.4691 77.2812 47.4691 77.2812L53.0575 69.7577L42.6778 67.8953C42.6778 67.8953 32.3838 73.7072 31.6015 79.6483C30.8193 85.5895 33.6887 89.3874 41.9505 91.7473Z" fill="#D72235" />
		<path d="M53.0572 69.7576L52.1899 70.9254L42.6779 69.2193C42.6779 69.2193 32.3839 75.031 31.6014 80.9722C31.5507 81.3537 31.5163 81.7261 31.496 82.0895C31.454 81.2743 31.4893 80.457 31.6014 79.6485C32.3835 73.7073 42.6777 67.8956 42.6777 67.8956L53.0572 69.7576Z" fill="#FF8591" />
		<path d="M43.2525 133.283C43.2525 133.283 37.0699 129.098 35.0796 124.494C33.0893 119.89 28.9397 119.35 23.871 120.309C19.2618 121.181 17.3762 121.669 17.3762 121.669C17.3762 121.669 20.2395 118.937 25.6867 118.204C31.134 117.472 35.8629 120.381 37.0699 124.703C38.277 129.024 43.2525 133.283 43.2525 133.283Z" fill="#432F87" />
		<path d="M167.762 121.12C167.762 121.12 173.694 100.975 170.53 91.7578C170.53 91.7578 178.044 106.242 167.762 121.12Z" fill="#432F87" />
		<path d="M178.172 133.283C178.172 133.283 184.355 129.098 186.345 124.494C188.336 119.89 192.485 119.35 197.554 120.309C202.163 121.181 204.049 121.669 204.049 121.669C204.049 121.669 201.185 118.937 195.738 118.204C190.291 117.472 185.562 120.381 184.355 124.703C183.148 129.024 178.172 133.283 178.172 133.283Z" fill="#432F87" />
		<path d="M157.476 157.896C157.425 158.411 156.517 159.364 154.973 160.629C146.646 167.461 119.822 183.415 109.21 188.91C108.373 190.779 110.228 196.659 113.868 201.288C114.281 201.813 114.941 202.549 115.757 203.412C114.614 203.597 113.468 203.765 112.321 203.917C106.95 195.463 106.917 189.081 108.093 188.003C108.639 187.502 109.538 186.909 110.502 186.335C110.503 186.336 110.503 186.335 110.503 186.335C110.645 186.251 110.788 186.167 110.931 186.084C111.225 185.914 111.522 185.748 111.812 185.587C111.815 185.586 111.817 185.585 111.82 185.584C113.376 184.725 114.761 184.056 114.761 184.056C114.761 184.056 143.203 167.791 150.997 159.106C152.415 157.526 153.15 156.196 152.905 155.262C152.47 153.6 150.794 147.178 148.591 138.726C146.202 129.564 143.193 118.017 140.469 107.565C138.002 98.0979 135.77 89.5295 134.444 84.4434C134.191 83.469 133.97 82.6234 133.787 81.9228C133.415 80.491 133.2 79.6697 133.186 79.613C133.185 79.6118 133.185 79.6106 133.185 79.6094C133.185 79.6094 132.86 78.8412 131.91 77.1483C131.609 76.6107 131.245 75.9803 130.807 75.2509C130.692 75.0573 130.57 74.8574 130.445 74.6502C130.182 74.2189 129.895 73.7572 129.585 73.2652C129.069 72.4449 128.482 71.5372 127.824 70.5421L127.823 70.5412V70.5403C127.823 70.5403 135.998 71.5146 140.385 74.7061C140.829 75.0319 141.246 75.3917 141.633 75.7822C142.435 76.5994 143.156 77.4917 143.786 78.4468C144.928 80.1389 145.981 82.1506 146.933 84.3011C147.103 84.6853 147.27 85.0737 147.433 85.4663C147.813 86.375 148.174 87.3016 148.518 88.2345C151.544 96.4391 153.172 105.084 152.942 105.499C152.591 106.134 146.379 112.572 145.191 113.8C145.065 113.931 144.995 114.003 144.995 114.003C144.995 114.003 145.109 114.054 145.309 114.16C146.503 114.793 150.778 117.355 152.327 122.367C152.705 125.443 153.137 128.569 153.588 131.629C153.588 131.629 153.589 131.634 153.59 131.645C153.59 131.647 153.591 131.65 153.591 131.654C153.591 131.655 153.592 131.657 153.592 131.657C155.471 144.402 157.667 155.982 157.476 157.896Z" fill="#432F87" />
		<path d="M105.281 182.81C97.0389 177.977 67.9128 160.475 69.2799 155.262C70.8715 149.193 89.0005 79.6096 89.0005 79.6096C89.0005 79.6096 90.1339 76.9261 94.3619 70.5404C94.3619 70.5404 86.1877 71.5147 81.7998 74.7062C73.7838 80.5366 68.8552 104.797 69.2439 105.499C69.6325 106.201 77.1907 114.003 77.1907 114.003C77.1907 114.003 71.6671 116.517 69.8584 122.366C67.9101 138.265 64.4724 155.522 64.7102 157.896C65.0258 161.043 87.186 177.473 104.5 184.056C104.5 184.056 109.021 186.259 111.909 186.608L113.122 185.98C113.122 185.98 108.557 184.75 105.281 182.81Z" fill="#432F87" />
		<path d="M49.326 139.038C49.326 139.038 55.5866 140.23 57.5029 139.019C59.4192 137.807 61.6149 135.1 63.9532 133.283C66.8062 131.066 68.5972 131.628 68.5972 131.628C68.5972 131.628 68.2483 134.642 67.9096 138.265C67.9096 138.265 70.3862 138.643 72.4893 138.75C74.5924 138.858 78.7325 137.78 79.6586 138.535C80.5846 139.291 81.3241 141.805 79.408 143.011C79.408 143.011 81.5581 144.796 80.2994 146.396C79.0408 147.996 78.4996 148.23 78.4996 148.23C78.4996 148.23 79.8737 150.417 79.1177 151.342C78.3617 152.267 76.8011 153.41 76.8011 153.41C76.8011 153.41 78.2482 155.865 77.3413 156.342C76.4343 156.819 66.2875 161.527 64.8711 161.097C63.4548 160.666 55.119 157.035 52.5889 156.63C50.0587 156.225 45.9739 155.778 45.9739 155.778C45.9739 155.778 43.6934 146.29 49.326 139.038Z" fill="#FFB573" />
		<path d="M51.7834 138.71L46.777 135.48C46.777 135.48 41.701 139.641 40.2823 145.873C38.7946 152.41 40.8263 155.753 40.8263 155.753L47.5745 156.345C47.5745 156.345 46.2706 147.494 51.7834 138.71Z" fill="#432F87" />
		<path d="M78.4996 148.23C78.4996 148.23 79.0406 147.997 80.2994 146.396C81.5582 144.796 79.408 143.011 79.408 143.011C81.3241 141.805 80.5846 139.291 79.6585 138.536C79.2273 138.185 78.0988 138.23 76.8041 138.369C76.6356 139.068 76.5036 139.776 76.4085 140.489C76.2063 141.919 76.3212 143.336 76.4065 144.616C76.523 146.366 75.9943 147.102 75.5105 148.82C75.1184 150.213 75.5729 151.728 75.2324 153.134C74.8318 154.788 73.3703 156.133 73.357 157.834C73.356 157.945 73.3632 158.056 73.3787 158.166C75.3662 157.293 77.0017 156.521 77.3414 156.342C78.2483 155.865 76.8013 153.41 76.8013 153.41C76.8013 153.41 78.3618 152.267 79.1178 151.342C79.8739 150.417 78.4996 148.23 78.4996 148.23Z" fill="#ED9E58" />
		<path d="M43.2524 152.912C44.1093 152.912 44.804 152.218 44.804 151.362C44.804 150.506 44.1093 149.812 43.2524 149.812C42.3955 149.812 41.7008 150.506 41.7008 151.362C41.7008 152.218 42.3955 152.912 43.2524 152.912Z" fill="#FFB573" />
		<path d="M172.859 139.038C172.859 139.038 166.599 140.23 164.682 139.019C162.766 137.807 160.57 135.1 158.232 133.283C155.379 131.066 153.588 131.628 153.588 131.628C153.588 131.628 153.937 134.642 154.276 138.265C154.276 138.265 151.799 138.643 149.696 138.75C147.592 138.858 143.452 137.78 142.526 138.535C141.6 139.291 140.861 141.805 142.777 143.011C142.777 143.011 140.627 144.796 141.885 146.396C143.144 147.996 143.685 148.23 143.685 148.23C143.685 148.23 142.311 150.417 143.067 151.342C143.823 152.267 145.384 153.41 145.384 153.41C145.384 153.41 143.937 155.865 144.844 156.342C145.751 156.819 155.897 161.527 157.314 161.097C158.73 160.666 167.066 157.035 169.596 156.63C172.126 156.225 176.211 155.778 176.211 155.778C176.211 155.778 178.492 146.29 172.859 139.038Z" fill="#FFB573" />
		<path d="M143.686 148.23C143.686 148.23 143.145 147.997 141.886 146.396C140.627 144.796 142.777 143.011 142.777 143.011C140.861 141.805 141.601 139.291 142.527 138.536C142.958 138.185 144.087 138.23 145.381 138.369C145.55 139.068 145.682 139.776 145.777 140.489C145.979 141.919 145.864 143.336 145.779 144.616C145.662 146.366 146.191 147.102 146.675 148.82C147.067 150.213 146.613 151.728 146.953 153.134C147.354 154.788 148.815 156.133 148.828 157.834C148.829 157.945 148.822 158.056 148.807 158.166C146.819 157.293 145.184 156.521 144.844 156.342C143.937 155.865 145.384 153.41 145.384 153.41C145.384 153.41 143.824 152.267 143.068 151.342C142.312 150.417 143.686 148.23 143.686 148.23Z" fill="#ED9E58" />
		<path d="M169.641 138.71L174.648 135.48C174.648 135.48 179.724 139.641 181.142 145.873C182.63 152.41 180.598 155.753 180.598 155.753L173.85 156.345C173.85 156.345 175.154 147.494 169.641 138.71Z" fill="#432F87" />
		<path d="M178.172 152.912C179.029 152.912 179.724 152.218 179.724 151.362C179.724 150.506 179.029 149.812 178.172 149.812C177.315 149.812 176.621 150.506 176.621 151.362C176.621 152.218 177.315 152.912 178.172 152.912Z" fill="#FFB573" />
		<path d="M30.3143 179.04C35.2673 179.04 39.2826 175.029 39.2826 170.082C39.2826 165.135 35.2673 161.125 30.3143 161.125C25.3613 161.125 21.3461 165.135 21.3461 170.082C21.3461 175.029 25.3613 179.04 30.3143 179.04Z" fill="#FFEA70" />
		<path d="M162.719 57.4755C166.299 57.4755 169.202 54.5763 169.202 50.9999C169.202 47.4236 166.299 44.5244 162.719 44.5244C159.138 44.5244 156.235 47.4236 156.235 50.9999C156.235 54.5763 159.138 57.4755 162.719 57.4755Z" fill="white" />
		<path d="M201.575 32.2364C205.155 32.2364 208.058 29.3373 208.058 25.7609C208.058 22.1846 205.155 19.2854 201.575 19.2854C197.994 19.2854 195.091 22.1846 195.091 25.7609C195.091 29.3373 197.994 32.2364 201.575 32.2364Z" fill="white" />
		<path d="M53.6631 184.126C57.2438 184.126 60.1465 181.227 60.1465 177.651C60.1465 174.074 57.2438 171.175 53.6631 171.175C50.0824 171.175 47.1797 174.074 47.1797 177.651C47.1797 181.227 50.0824 184.126 53.6631 184.126Z" fill="white" />
		<path d="M179.048 35.253C180.307 35.253 181.327 34.2338 181.327 32.9764C181.327 31.7191 180.307 30.6998 179.048 30.6998C177.789 30.6998 176.768 31.7191 176.768 32.9764C176.768 34.2338 177.789 35.253 179.048 35.253Z" fill="white" />
		<path d="M170.47 173.153C171.729 173.153 172.75 172.134 172.75 170.876C172.75 169.619 171.729 168.6 170.47 168.6C169.212 168.6 168.191 169.619 168.191 170.876C168.191 172.134 169.212 173.153 170.47 173.153Z" fill="white" />
	</g>
	<defs>
		<clipPath id="clip0">
			<rect width="238" height="205" fill="white" />
		</clipPath>
	</defs>
</svg>
